<?xml version="1.0" encoding="UTF-8" standalone="no"?>
<svg
   xmlns:dc="http://purl.org/dc/elements/1.1/"
   xmlns:cc="http://creativecommons.org/ns#"
   xmlns:rdf="http://www.w3.org/1999/02/22-rdf-syntax-ns#"
   xmlns:svg="http://www.w3.org/2000/svg"
   xmlns="http://www.w3.org/2000/svg"
   xmlns:sodipodi="http://sodipodi.sourceforge.net/DTD/sodipodi-0.dtd"
   xmlns:inkscape="http://www.inkscape.org/namespaces/inkscape"
   width="800"
   height="800"
   id="svg2"
   version="1.1"
   inkscape:version="0.48.4 r9939"
   sodipodi:docname="tendril-logo.svg">
  <metadata
     id="metadata18">
    <rdf:RDF>
      <cc:Work
         rdf:about="">
        <dc:format>image/svg+xml</dc:format>
        <dc:type
           rdf:resource="http://purl.org/dc/dcmitype/StillImage" />
      </cc:Work>
    </rdf:RDF>
  </metadata>
  <defs
     id="defs16" />
  <sodipodi:namedview
     pagecolor="#ffffff"
     bordercolor="#666666"
     borderopacity="1"
     objecttolerance="10"
     gridtolerance="10"
     guidetolerance="10"
     inkscape:pageopacity="0"
     inkscape:pageshadow="2"
     inkscape:window-width="1366"
     inkscape:window-height="704"
     id="namedview14"
     showgrid="false"
     fit-margin-top="0"
     fit-margin-left="0"
     fit-margin-right="0"
     fit-margin-bottom="0"
     inkscape:zoom="0.44849866"
     inkscape:cx="317.76649"
     inkscape:cy="473.65317"
     inkscape:window-x="0"
     inkscape:window-y="-4"
     inkscape:window-maximized="1"
     inkscape:current-layer="svg2" />
  <g
     id="g4"
     transform="translate(6.1358904,-290.52315)"
     style="fill:#84b33f">
    <path
       id="path3466"
       d="m -2.4036,710.62 c 16.702,-6.0801 36.516,3.4271 45.923,22.035 7.8954,15.618 7.1634,32.066 -3.49,78.429 -6.7485,29.369 -8.8991,44.742 -9.4368,67.455 -0.47416,20.03 -1.2201,26.142 -2.3373,19.153 -3.2243,-20.172 -1.2148,-45.338 7.1645,-89.733 5.3078,-28.122 7.9485,-48.546 7.0241,-54.329 -3.6599,-22.893 -20.017,-39.714 -38.938,-40.041 -10.968,-0.18958 -12.051,-0.73376 -5.9102,-2.9693 h -1e-5 z m 32.26,-69.452 c 0.66109,-1.748 2.7968,-3.1506 4.746,-3.1169 2.0993,0.0362 2.9167,1.6152 2.0052,3.8734 -2.5328,6.2737 2.6619,4.408 10.819,-3.8863 26.678,-27.126 69.325,-20.979 87.853,12.662 6.2592,11.365 7.4082,16.307 7.1768,30.865 -0.26944,16.943 -7.595,42.935 -13.757,48.812 -1.534,1.4633 -0.13562,-3.0519 3.1074,-10.033 8.2697,-17.802 9.0578,-46.976 1.6585,-61.39 -24.683,-48.084 -86.663,-41.367 -95.829,10.387 l -2.3921,13.506 0.9698,-14.698 c 0.53336,-8.0839 0.05207,-14.714 -1.0694,-14.734 -3.0034,-0.0519 -6.6798,-8.5666 -5.288,-12.247 z m 13.251,50.496 c 2.412,1.9161 6.1387,2.8455 8.2815,2.0656 4.4017,-1.6024 5.4855,-9.2289 1.3218,-9.3008 -1.4902,-0.0258 -1.9779,-1.186 -1.084,-2.5779 2.8084,-4.373 11.259,-2.5922 14.116,2.975 2.1304,4.1514 1.8091,6.7037 -1.4471,11.491 -5.4644,8.0328 -11.962,7.6758 -19.492,-1.0711 -3.3451,-3.8859 -4.1084,-5.4976 -1.6962,-3.5818 z m 15.737,100.35 c 7.2225,-20.284 13.196,-38.836 13.275,-41.226 0.16711,-5.0776 15.545,-17.136 21.717,-17.029 9.0714,0.1568 3.1429,19.828 -11.562,38.363 -5.9826,7.5415 -16.788,24.942 -24.012,38.667 -7.224,13.726 -13.003,23.415 -12.842,21.531 0.1608,-1.8841 6.2019,-20.022 13.424,-40.306 z m -8.9937,76.671 c 14.889,-53.109 41.825,-87.245 100.64,-127.54 85.058,-58.27 119.1,-91.723 131.45,-129.17 7.1006,-21.528 7.5844,-48.303 1.1122,-61.55 -12.787,-26.172 -46.754,-37.035 -68.703,-21.97 -8.7073,5.9762 -12.793,16.349 -8.9514,22.723 2.8969,4.8066 13.277,7.2258 13.815,3.2197 0.20192,-1.502 0.67487,-3.8773 1.0509,-5.2781 0.37614,-1.4012 0.83846,-3.161 1.0273,-3.9112 0.18892,-0.74957 2.6248,-0.0914 5.4129,1.4634 3.3194,1.8511 5.0241,5.445 4.9383,10.412 -0.28654,16.577 -20.313,23.388 -32.295,10.984 -7.4649,-7.7277 -7.6451,-13.942 -0.77875,-26.845 6.1287,-11.517 19.581,-20.257 33.715,-21.905 8.9214,-1.04 9.811,-1.7422 7.6194,-6.0131 -4.7525,-9.2612 6.525,-19.92 16.721,-15.804 6.2359,2.5176 5.449,9.9824 -1.0492,9.9538 -2.0881,-0.009 -4.179,1.7846 -4.6464,3.9864 -0.54559,2.5706 3.636,6.5463 11.683,11.108 6.893,3.9076 15.976,11.165 20.183,16.128 8.3488,9.8469 15.178,30.424 14.926,44.976 -0.23236,13.443 -7.455,37.32 -15.696,51.89 -13.764,24.334 -62.072,66.113 -118.77,102.72 -35.781,23.1 -52.511,36.496 -67.824,54.306 -26.567,30.901 -44.003,70.891 -47.102,108.03 -0.9379,11.237 -1.0874,16.988 -0.33256,12.778 6.3829,-35.588 21.922,-68.597 42.301,-89.86 41.005,-42.782 91.942,-57.656 215.88,-63.039 98.082,-4.2597 149.3,-13.821 197.69,-36.9 37.539,-17.906 74.874,-50.19 96.286,-83.258 11.224,-17.334 19.191,-26.597 21.141,-24.579 4.5117,4.6702 -29.699,50.826 -55.203,74.477 -32.415,30.061 -68.079,48.098 -120.74,61.065 -34.832,8.5767 -64.614,12.185 -138.14,16.736 -94.954,5.878 -129.75,12.331 -167.98,31.152 -50.669,24.948 -84.746,78.527 -86.523,136.04 -0.4605,14.903 0.61235,21.774 4.8081,30.793 4.198,9.0236 5.0605,9.8936 3.8719,3.9056 -0.84097,-4.2372 -1.3562,-17.49 -1.1449,-29.45 0.60805,-34.426 11.678,-60.281 36.815,-85.981 12.53,-12.812 26.522,-22.194 29.107,-19.518 0.66016,0.68335 -3.8994,4.6226 -10.132,8.754 -23.115,15.322 -38.611,37.075 -47.987,67.363 -3.5449,11.452 -4.4788,21.445 -3.9749,42.534 0.6039,25.272 1.2576,28.461 7.8595,38.348 10.006,14.986 29.713,32.247 48.293,42.298 8.6288,4.6682 15.29,8.8733 14.801,9.3446 -1.2913,1.2476 -21.292,-9.6511 -33.075,-18.023 -13.161,-9.3503 -32.732,-30.306 -39.993,-42.821 -3.3316,-5.7419 -6.2158,-8.4849 -6.8957,-6.557 -2.377,6.74 -11.538,-50.679 -11.055,-69.29 0.27392,-10.552 2.901,-27.757 5.838,-38.233 h 8e-6 z m 14.729,-443.41 c 7.8453,-6.857 13.451,-5.2731 11.588,3.2739 -1.1933,5.4728 -0.47787,7.7294 2.8797,9.0851 3.3948,1.3704 10.463,-4.2229 29.439,-23.298 13.734,-13.806 31.572,-29.058 39.639,-33.893 59.532,-35.681 132.06,-26.76 182.05,22.391 21.428,21.071 33.967,43.539 41.126,73.691 11.373,47.9 -1.316,111.55 -30.981,155.4 -19.156,28.32 -58.363,60.646 -95.23,78.518 -17.592,8.528 -16.338,5.9033 1.8113,-3.7905 65.662,-35.073 99.376,-74.717 115.06,-135.31 16.999,-65.648 6.4624,-115.58 -32.938,-156.09 -31.378,-32.262 -65.097,-47.108 -108.55,-47.794 -68.102,-1.0744 -130.04,49.459 -145.32,118.56 -5.6704,25.644 -3.9474,50.084 4.2246,59.923 7.6815,9.249 15.438,6.834 13.432,-4.182 -1.2505,-6.868 -0.73292,-7.6507 4.9917,-7.5518 13.138,0.22711 14.518,21.756 1.9046,29.712 -8.5811,5.4129 -18.137,2.5471 -22.784,-6.8329 -5.454,-11.009 -9.1175,-42.722 -6.8975,-59.71 1.7704,-13.548 6.0661,-29.432 11.054,-40.872 1.5515,-3.5588 0.62814,-4.4676 -4.6323,-4.5586 -7.8403,-0.13553 -16.847,-9.3016 -16.714,-17.009 0.05245,-3.0343 2.2337,-7.386 4.8471,-9.6701 z m 6.2373,494.21 c 1.0438,-1.0082 3.6629,-1.8026 5.8206,-1.7653 2.8796,0.0498 3.1529,0.81146 1.0275,2.8646 -1.5925,1.5385 -4.2117,2.333 -5.8206,1.7656 -1.6089,-0.56763 -2.0713,-1.8568 -1.0275,-2.8649 z m 0.669,19.898 c 1.4221,-0.84546 2.5658,-0.3855 2.5415,1.0214 -0.02433,1.4072 -1.2078,3.2499 -2.6299,4.0953 -1.4221,0.84515 -2.5658,0.3855 -2.5415,-1.0217 0.02432,-1.4069 1.2078,-3.2499 2.6299,-4.095 z m 8.3606,-39.522 c 2.8143,0.0486 5.099,1.1165 5.0772,2.3729 -0.04971,2.876 -6.7507,5.4433 -8.7648,3.3582 -3.0264,-3.1328 -1.2991,-5.8174 3.6875,-5.7311 z m 7.9404,-15.218 c 2.8143,0.0486 5.099,1.1165 5.0772,2.3729 -0.04972,2.876 -6.7507,5.4433 -8.7648,3.3582 -3.0264,-3.1328 -1.2991,-5.8173 3.6876,-5.7311 z m 14.193,-117.85 c 5.3631,-4.9084 26.65,-21.184 47.304,-36.169 20.654,-14.984 50.394,-39.114 66.088,-53.622 15.886,-14.686 24.728,-21.64 19.946,-15.69 -12.99,16.165 -41.884,40.846 -82.186,70.201 -19.957,14.536 -41.844,31.591 -48.639,37.9 -6.7948,6.3088 -12.334,10.308 -12.31,8.8882 0.02455,-1.4204 4.4326,-6.5989 9.7956,-11.508 z m -9.7366,104.32 c 2.5962,-2.5077 11.166,-1.9459 11.12,0.72894 -0.0578,3.3422 -8.267,5.7832 -10.762,3.2 -1.1747,-1.2158 -1.3355,-2.9836 -0.35726,-3.9289 z m 16.286,-15.399 c 2.8821,-1.7133 10.448,1.1066 10.4,3.8757 -0.0479,2.7692 -7.707,5.3256 -10.528,3.5139 -1.2664,-0.81317 -2.2852,-2.494 -2.2637,-3.735 0.0215,-1.2411 1.0977,-2.8856 2.3914,-3.6546 z m 15.435,-12.445 c 3.6357,-2.1611 10.957,1.3862 9.7757,4.7365 -1.3278,3.7651 -10.126,3.5503 -11.328,-0.27673 -0.51523,-1.6393 0.1833,-3.6462 1.5522,-4.4598 z m 44.875,-83.754 c 12.3,-5.3171 36.398,-16.121 53.551,-24.009 17.153,-7.8876 32.5,-14.318 34.104,-14.291 6.4609,0.11169 23.34,8.8584 23.285,12.066 -0.12952,7.4924 -16.424,15.501 -34.467,16.942 -19.758,1.5772 -41.078,5.7918 -74.392,14.707 -12.478,3.3388 -23.082,5.6617 -23.565,5.1614 -0.48323,-0.50006 9.185,-5.2597 21.485,-10.577 z m -16.691,167.33 c 6.5148,-5.2194 20.058,-1.8872 24.271,5.9717 3.4338,6.4041 3.3681,7.4267 -0.73164,11.387 -4.2708,4.126 -4.6812,4.1005 -7.9144,-0.48547 -4.4379,-6.2946 -11.848,-3.6727 -11.985,4.2407 -0.30826,17.834 32.023,32.286 62.688,28.022 36.344,-5.0529 61.09,-33.212 61.548,-70.037 0.55328,-44.454 -30.029,-80.231 -76.566,-89.572 -10.153,-2.038 -16.08,-3.7886 -13.169,-3.8908 2.9102,-0.10181 12.101,1.1838 20.424,2.8569 68.078,13.687 98.936,98.32 52.859,144.97 -5.3015,5.3677 -16.892,12.952 -25.756,16.854 -14.948,6.5803 -21.701,14.625 -12.412,14.785 2.1107,0.0364 3.8089,1.7253 3.7738,3.7527 -0.18162,10.50697 -17.478,7.12067 -19.469,-3.8113 -1.2039,-6.6114 -2.823,-7.6699 -16.092,-10.519 -24.885,-5.3441 -45.616,-25.261 -45.321,-43.544 0.0708,-4.401 1.8041,-9.3438 3.8518,-10.984 z m 27.482,-112.06 c 2.6989,-0.0646 4.1994,0.56616 3.3346,1.4016 -0.86487,0.83569 -3.0729,0.88812 -4.9071,0.11731 -2.0268,-0.85193 -1.4101,-1.4479 1.5724,-1.5189 z m 15.944,-137.48 c 1.8983,-5.0173 5.9018,-3.6242 5.8043,2.0197 -0.0486,2.8142 -1.1717,5.098 -2.4958,5.0751 -3.2748,-0.0566 -4.7635,-3.249 -3.3085,-7.0948 z m 20.916,122.88 c 14.622,-0.004 22.753,1.6385 38.95,7.869 24.322,9.3555 54.407,29.389 60.986,40.61 5.0348,8.5872 5.9466,23.512 1.8161,29.729 -4.1783,6.2891 -15.092,-2.0496 -24.413,-18.654 -16.381,-29.182 -49.233,-52.659 -80.065,-57.219 l -15.754,-2.33 18.48,-0.005 z m 81.813,45.874 c 4.1515,4.1172 7.5579,6.9102 7.5701,6.2066 0.0122,-0.70361 -3.3744,-4.6477 -7.5259,-8.765 -4.1514,-4.1172 -7.5579,-6.9102 -7.5701,-6.2069 -0.0121,0.70361 3.3745,4.648 7.5259,8.7653 z m -86.537,-185.64 c 1.3239,-0.78686 3.143,-0.19244 4.0427,1.321 2.2746,3.8265 -0.91348,10.814 -4.023,8.8178 -3.2009,-2.0555 -3.2129,-8.2405 -0.0197,-10.139 z m 14.363,-18.876 c 2.9339,-2.3506 3.9906,-1.8844 5.2434,2.3134 1.8654,6.2498 -0.30328,10.389 -5.3974,10.301 -4.7402,-0.082 -4.6341,-8.7784 0.15393,-12.614 z m 32.164,150.37 c 51.143,4.4941 93.087,17.861 139.84,44.565 33.597,19.191 50.076,24.566 57.379,18.716 6.0742,-4.8664 5.1301,-10.856 -1.4039,-8.9053 -6.3923,1.9075 -5.6754,-3.3686 1.0087,-7.425 5.9394,-3.6045 12.629,2.8474 11.516,11.106 -1.7524,12.995 -24.39,16.019 -43.355,5.7924 -6.8408,-3.6889 -6.0262,-2.0629 6.7689,13.509 10.7,13.022 16,17.548 20.045,17.116 3.0245,-0.32288 6.8392,1.0857 8.4771,3.1302 2.3925,2.9863 1.9612,4.0207 -2.1943,5.2609 -4.9087,1.4649 -4.9767,1.973 -1.3337,9.9651 2.5579,5.6114 5.5893,8.3926 9.0862,8.3355 2.8862,-0.0466 5.7231,1.3626 6.3042,3.132 0.58099,1.7695 -0.88959,3.1835 -3.2681,3.1425 -3.115,-0.0539 -3.8306,1.1862 -2.5587,4.4342 0.97116,2.48 2.2945,6.4688 2.9406,8.8638 0.64618,2.3954 3.5515,4.7489 6.4564,5.2299 6.4406,1.067 9.0006,7.3372 2.9529,7.2327 -2.8922,-0.05 -3.8333,1.2745 -2.8415,3.9989 0.81561,2.2405 1.4547,5.7064 1.4202,7.702 -0.0345,1.9956 0.80316,3.5067 1.8613,3.3585 4.7031,-0.65973 8.3059,0.65027 8.2652,3.005 -0.0243,1.4069 -1.7711,2.5285 -3.8818,2.4921 -4.856,-0.084 -4.9269,4.3087 -0.22144,13.724 4.7338,9.4727 4.5956,17.061 -0.30924,16.976 -2.1106,-0.0365 -3.9043,-1.507 -3.9858,-3.2678 -1.5771,-34.063 -2.0347,-35.93 -8.2534,-33.666 -4.4611,1.6242 -4.7279,-0.26007 -0.98712,-6.9684 3.5064,-6.2882 -0.80634,-15.643 -6.291,-13.647 -4.2697,1.5544 -5.3252,-5.5549 -1.1896,-8.0128 1.5047,-0.89429 0.87463,-5.0438 -1.5853,-10.441 -2.7486,-6.0298 -4.9413,-8.1264 -6.7112,-6.4167 -5.0459,4.8745 -7.2782,2.3943 -5.5246,-6.1372 1.5734,-7.6545 0.26022,-10.592 -11.99,-26.818 -13.399,-17.749 -34.015,-35.896 -56.003,-49.297 -23.438,-14.286 -58.885,-25.194 -125.57,-38.642 -13.734,-2.7697 -13.627,-2.7935 5.138,-1.1445 z m 13.247,-440.37 c 52.779,6.6004 101.85,54.956 116.46,114.76 8.9953,36.817 5.8282,81.161 -8.7623,122.69 -8.2318,23.428 -26.112,56.421 -34.596,63.836 -2.6081,2.2794 0.60416,-3.6961 7.1382,-13.279 23.17,-33.982 36.264,-76.496 37.196,-120.76 0.69986,-33.262 -3.9582,-55.704 -17.521,-84.412 -18.412,-38.973 -50.987,-66.505 -93.341,-78.894 -15.899,-4.6505 -16.849,-5.2186 -6.5769,-3.934 z m 32.714,-15.923 c 4.1125,0.0711 8.4522,7.701 6.7617,11.888 -1.3512,3.3471 -2.3796,3.5186 -5.4202,0.90536 -4.0448,-3.4769 -5.0284,-12.858 -1.3415,-12.794 z m 29.809,441.23 c 30.782,-0.1886 82.342,-5.4687 113.14,-11.586 64.937,-12.898 123.19,-41.803 153.08,-75.96 5.7077,-6.5213 12.873,-14.693 15.923,-18.159 3.0497,-3.4661 0.46783,0.92493 -5.7376,9.7581 -29.698,42.274 -85.827,73.72 -157.29,88.123 -37.496,7.5569 -80.987,11.076 -115.32,9.3302 l -26.847,-1.365 23.05,-0.1411 z M 332.354,351.47 c 4.143,0.0716 8.3948,10.595 5.4357,13.453 -1.4393,1.3906 -3.855,1.7328 -5.3684,0.76099 -3.4031,-2.1853 -3.4604,-14.273 -0.0673,-14.214 z m 8.8387,382.16 c 6.332,0.10944 8.9137,0.65326 5.7372,1.2082 -3.1765,0.55518 -8.3572,0.46564 -11.513,-0.19904 -3.1554,-0.66431 -0.5564,-1.1186 5.7755,-1.0092 z m 65.447,63.089 c 63.144,1.6541 80.247,2.9263 104.79,7.7937 69.218,13.728 112.52,36.976 135.03,72.499 26.967,42.558 25.556,91.892 -3.3104,115.75 -17.955,14.839 -32.501,13.435 -37.813,-3.6492 -5.0298,-16.175 12.557,-33.375 23.035,-22.528 3.754,3.8857 3.7079,4.4729 -0.58929,7.5026 -6.2982,4.4402 -4.8726,15.54 2.1407,16.667 14.748,2.3705 29.66,-22.012 30.132,-49.263 1.1462,-66.31 -54.919,-114.01 -155.77,-132.52 -37.706,-6.9228 -50.861,-8.236 -113.01,-11.28 l -60.089,-2.9431 75.46,1.977 z m -51.109,-423.82 c 1.8666,0.65112 3.7331,3.8189 4.1477,7.0396 0.51227,3.9788 -0.33395,5.4761 -2.6399,4.6718 -1.8666,-0.65143 -3.7331,-3.8192 -4.1477,-7.0396 -0.51227,-3.9787 0.33395,-5.4761 2.6399,-4.6718 z m 14.297,23.018 c 1.8486,-2.8102 2.8501,-2.4433 5.054,1.8515 2.8966,5.6447 -0.19171,9.8802 -4.9679,6.813 -3.0844,-1.9808 -3.1052,-4.0745 -0.0861,-8.6645 z m 10.537,335.6 c 29.649,-0.89606 78.585,-16.807 85.319,-27.741 2.085,-3.3852 1.4886,-5.6583 -2.5942,-9.8846 l -5.3018,-5.488 -5.6601,5.8686 c -4.7923,4.9689 -6.0188,5.2791 -7.999,2.0238 -6.2231,-10.23 2.7007,-22.951 15.939,-22.722 9.1374,0.15796 20.18,10.226 20.041,18.271 -0.19296,11.164 -8.0991,20.635 -22.466,26.914 -17.79,7.7756 -59.778,15.702 -75.21,14.199 -10.89,-1.0607 -11.046,-1.1693 -2.0688,-1.4406 z m 3.7736,-310.9 c 3.2995,-3.1872 5.9986,-1.5823 5.9105,3.5145 -0.0491,2.8426 -1.794,5.0872 -3.926,5.0504 -3.8949,-0.0673 -5.1543,-5.5029 -1.9845,-8.5648 z m 10.473,25.455 c 1.3239,-0.78686 3.11,-0.24835 3.9691,1.197 1.8341,3.086 -0.64142,7.7082 -4.0962,7.6484 -3.113,-0.0538 -3.0135,-6.9788 0.12711,-8.8454 z m 123.9,310.41 c 2.0276,0.035 4.3782,1.2272 5.2235,2.6494 0.84534,1.4219 -0.8335,2.5447 -3.7308,2.4946 -2.8972,-0.0501 -5.2479,-1.2425 -5.2235,-2.6494 0.0243,-1.4072 1.7032,-2.5297 3.7308,-2.4946 z m 14.577,41.4 c 2.6988,-0.0646 4.1994,0.56616 3.3347,1.4016 -0.86487,0.83569 -3.073,0.88812 -4.9071,0.11731 -2.0268,-0.85193 -1.41,-1.4479 1.5724,-1.5189 z m 13.78,-359.89 c 7.9172,-8.8891 19.052,-8.9372 35.938,-0.15601 39.314,20.446 62.077,65.919 57.601,115.07 -1.0136,11.131 -3.7567,22.03 -7.0542,28.028 -6.4205,11.679 -6.6691,9.7698 -1.3793,-10.589 13.715,-52.784 -9.9344,-114.05 -48.03,-124.42 -8.9982,-2.4501 -11.065,-2.1834 -15.38,1.9846 -2.7415,2.6482 -5.0028,5.8721 -5.0252,7.1641 -0.0997,5.7713 3.3077,10.503 7.6173,10.578 6.3887,0.11044 8.2781,4.1133 4.8464,10.267 -2.1116,3.7869 -5.4406,5.0773 -12.772,4.9506 -20.209,-0.34934 -30.417,-27.098 -16.362,-42.877 z m -5.048,311.22 c 3.8138,0.0659 5.998,1.2055 5.0725,2.6468 -0.89392,1.3919 -3.2164,2.5035 -5.161,2.4699 -1.9446,-0.0336 -4.2272,-1.2248 -5.0725,-2.6468 -0.87512,-1.4725 1.3472,-2.5358 5.161,-2.4699 z m 1.4572,51.41 c 2.6989,-0.0645 4.1994,0.56622 3.3347,1.4016 -0.86487,0.83569 -3.073,0.88812 -4.9071,0.11725 -2.0267,-0.85193 -1.41,-1.4479 1.5724,-1.5189 z m 8.0357,2.6887 c 4.7639,-0.25134 37.379,12.208 51.928,19.835 29.93,15.693 56.57,39.706 65.196,58.77 2.4232,5.355 1.9636,5.1303 -2.7118,-1.3265 -22.62,-31.239 -54.433,-54.191 -96.377,-69.531 -11.434,-4.1819 -19.55,-7.6685 -18.035,-7.7482 z m 8.7435,-64.02 c 3.7131,0.0642 5.8433,1.2085 4.9215,2.6442 -0.89392,1.3919 -3.8599,2.4924 -6.5911,2.4452 -2.7312,-0.0472 -4.9459,-1.2373 -4.9215,-2.6442 0.0243,-1.4072 2.9904,-2.5074 6.5911,-2.4452 z m 7.4412,-118.44 c 0.95435,-0.92194 6.4362,-1.606 12.182,-1.5204 12.732,0.18945 33.764,-8.9287 43.219,-18.738 9.9894,-10.363 20.567,-31.857 20.745,-42.153 0.3028,-17.517 18.286,-70.737 23.869,-70.641 1.0643,0.0184 4.7495,-8.2672 8.1894,-18.412 15.359,-45.298 35.241,-74.592 61.467,-90.567 8.7729,-5.3437 17.361,-10.867 19.086,-12.273 4.6894,-3.8248 11.035,-2.9576 10.958,1.4974 -0.0372,2.1546 -2.0926,4.4766 -4.5677,5.1596 -25.678,7.0861 -50.236,28.561 -66.128,57.825 -11.504,21.184 -24.06,53.8 -22.028,57.219 0.81464,1.3708 5.5955,-4.1115 10.624,-12.182 18.576,-29.816 38.778,-43.91 76.031,-53.046 10.601,-2.6002 21.879,-5.4367 25.06,-6.3036 4.5975,-1.2529 5.7676,-0.55197 5.6991,3.4124 -0.0718,4.1548 -1.9038,4.9666 -10.96,4.856 -16.685,-0.20377 -41.822,7.5067 -58.699,18.006 -15.734,9.788 -39.894,37.71 -43.37,50.124 -0.98053,3.5019 -5.6903,10.157 -10.466,14.79 -4.7759,4.6327 -8.704,9.6143 -8.7291,11.071 -0.0252,1.4559 2.32,-0.25543 5.2116,-3.8033 7.2275,-8.8686 21.947,-13.407 56.575,-17.444 16.219,-1.8911 32.092,-4.0874 35.272,-4.8806 5.0442,-1.2586 5.7662,-0.47513 5.652,6.1341 -0.0748,4.3275 -2.3594,9.5247 -5.3278,12.119 -2.8582,2.4981 -5.2449,7.3302 -5.3038,10.738 -0.062,3.5858 -3.629,9.5558 -8.4676,14.172 -4.5983,4.3865 -8.0966,9.872 -7.7739,12.189 0.69983,5.0263 -11.334,14.795 -18.082,14.678 -2.6244,-0.0453 -4.8012,1.6224 -4.8372,3.706 -0.0945,5.4634 -11.153,7.2341 -21.849,3.4982 -5.0648,-1.7692 -9.911,-2.5383 -10.769,-1.709 -0.85846,0.82953 0.23486,1.5388 2.4295,1.5768 8.9714,0.15509 9.1148,15.096 0.22717,23.682 -5.4202,5.236 -9.5883,6.476 -23.794,7.0796 -14.247,0.60529 -21.394,2.7422 -41.356,12.366 -13.273,6.3989 -27.402,11.578 -31.397,11.509 -3.9953,-0.0691 -7.9955,1.0132 -8.8895,2.4055 -2.4049,3.7449 -11.566,2.9068 -11.498,-1.0519 0.0325,-1.8763 0.83978,-4.1653 1.7941,-5.0873 z m 89.318,-34.9 c 2.3615,-0.8598 4.3114,-2.5911 4.3331,-3.8478 0.0462,-2.6748 -8.5234,-3.2366 -11.12,-0.72888 -2.9271,2.8278 2.1624,6.26 6.7864,4.5767 z m 9.0999,6.8144 c 8.5634,-3.3748 12.725,-11.56 8.2268,-16.179 -2.2012,-2.2604 -2.5333,-1.9388 -1.3586,1.316 1.8286,5.0665 -7.1282,14.79 -13.522,14.679 -2.3452,-0.0405 -3.546,0.66937 -2.6685,1.5777 0.8775,0.90826 5.0726,0.28137 9.3224,-1.3934 z m -2.8171,-44.752 c 2.1128,-2.6951 5.2967,-5.7892 7.0751,-6.8759 2.375,-1.4513 2.1488,-2.0047 -0.85193,-2.0856 -2.247,-0.0604 -5.3796,2.459 -6.9611,5.5987 -4.0134,7.9666 -3.7634,9.1052 0.73798,3.3628 z m 15.989,-11.88 c 9.3169,1.0673 19.634,-6.8216 17.301,-13.229 -3.2188,-8.8424 -27.759,-1.2892 -26.158,8.0506 0.45819,2.6729 3.7413,4.5925 8.8573,5.1786 z m -2.453,-10.88 c 5.0552,-1.8404 9.8198,2.1581 7.2816,6.1107 -2.5616,3.9891 -11.71,3.2155 -11.637,-0.98401 0.0339,-1.96 1.9938,-4.2672 4.3553,-5.1267 z m 17.053,33.67 c 2.042,-0.74353 3.7371,-2.7692 3.767,-4.5018 0.0424,-2.4506 -0.63959,-2.4799 -3.0686,-0.13367 -1.7177,1.6594 -5.4855,3.1097 -8.3729,3.2232 -4.5291,0.17786 -4.6176,0.38159 -0.64398,1.4849 2.5332,0.70325 6.2766,0.67047 8.3184,-0.0727 z m 16.654,-8.9731 c 3.0052,-1.5425 5.0505,-4.1203 4.545,-5.7288 -0.50555,-1.6088 2.0818,-5.4365 5.7496,-8.5061 5.1733,-4.33 5.9979,-6.2873 3.6776,-8.7291 -2.3226,-2.4437 -1.1902,-4.3229 5.0662,-8.4076 11.408,-7.4474 11.688,-10.785 0.81458,-9.7054 -7.5522,0.74948 -8.8502,1.7292 -7.6444,5.7693 0.92804,3.1094 1.8e-4,5.3957 -2.5698,6.3309 -2.7194,0.99011 -3.5765,3.3798 -2.6462,7.378 1.049,4.5081 0.0762,6.3013 -4.0944,7.546 -4.0364,1.2048 -5.0699,2.9742 -3.9428,6.7505 1.1631,3.8969 0.10883,5.4628 -4.419,6.5635 -3.2706,0.79504 -4.6086,1.9175 -2.9736,2.4943 1.6351,0.57648 5.4318,-0.2132 8.437,-1.7554 z m -132.31,176.86 c 3.5178,0.0609 6.3782,1.1387 6.3564,2.3951 -0.0516,2.984 -7.573,5.6887 -10.533,3.7878 -4.4609,-2.8646 -2.1456,-6.2921 4.1765,-6.1829 z m 15.436,-14.1 c 5.2876,-1.925 12.425,1.038 10.336,4.291 -0.90027,1.4018 -3.8035,2.5115 -6.4517,2.4658 -6.3029,-0.10895 -9.0444,-4.8782 -3.884,-6.7568 z m 10.011,96.432 c 4.7757,0.0826 5.446,0.77673 3.017,3.123 -2.4291,2.3466 -3.7936,2.323 -6.1401,-0.10614 -2.3465,-2.4288 -1.6526,-3.0994 3.123,-3.0168 z m 11.113,-112.41 c 8.0146,0.13849 7.0335,6.1317 -1.1779,7.1953 -3.6992,0.47894 -5.5468,-0.62732 -5.5007,-3.294 0.0451,-2.6124 2.3792,-3.9756 6.6785,-3.9013 z m 3.7032,119.32 c 1.2358,-0.73431 4.4026,0.35571 7.0374,2.4224 4.633,3.6348 4.6062,3.7578 -0.81622,3.7427 -5.9846,-0.0166 -9.9516,-3.9476 -6.2212,-6.1652 z m 11.636,-139.53 c 8.3319,0.14398 10.445,4.3626 3.8748,7.7344 -5.9806,3.069 -10.278,1.3149 -10.184,-4.1559 0.0381,-2.2029 2.5768,-3.6429 6.3087,-3.5784 z m 10.671,151.6 c 2.6157,0.55066 4.4484,2.1318 4.0726,3.5136 -1.0067,3.7019 -6.4804,2.9575 -7.7406,-1.0532 -0.70844,-2.2543 0.57092,-3.1125 3.668,-2.4604 z m 15.211,13.08 c 6.3968,1.3558 7.1748,7.3494 0.93994,7.2416 -3.1425,-0.0543 -5.3014,-1.7442 -5.2604,-4.1174 0.0412,-2.3825 1.8044,-3.6575 4.3204,-3.1242 z m 15.085,15.616 c 6.3968,1.3558 7.1747,7.3494 0.93988,7.2416 -3.1425,-0.0543 -5.3014,-1.7442 -5.2604,-4.1174 0.0412,-2.3826 1.8044,-3.6575 4.3205,-3.1242 z m 11.749,17.665 c 4.7516,0.0822 10.115,6.9538 6.9133,8.8569 -3.7134,2.2072 -10.57,-1.2889 -10.499,-5.3541 0.0339,-1.96 1.6475,-3.5362 3.5859,-3.5028 z"
       inkscape:connector-curvature="0" />
    <path
       id="path3468"
       d="m 11.876,710.17 c 15.025,1.5462 25.636,9.3005 32.236,23.556 6.9912,15.102 6.2954,29.473 -3.6219,74.801 -4.5784,20.926 -9.5915,47.815 -11.14,59.752 l -2.8156,21.704 1.5006,-26.845 c 0.82534,-14.765 4.8105,-42.802 8.8559,-62.304 8.427,-40.626 8.0153,-51.309 -2.6512,-68.789 -5.6003,-9.1777 -10.078,-12.942 -20.705,-17.405 l -13.559,-5.6944 11.901,1.2247 z m 18.011,-69.004 c 1.6368,-4.444 5.875,-3.9024 5.7948,0.73993 -0.10636,6.1533 4.8468,4.5441 12.284,-3.9906 25.833,-29.645 77.197,-17.526 91.352,21.554 4.6099,12.727 3.234,45.046 -2.2736,53.406 -3.1978,4.8539 -3.224,4.8513 -1.4838,-0.14624 3.9244,-11.271 4.9258,-32.33 2.0589,-43.296 -3.8126,-14.583 -17.903,-31.776 -31.236,-38.112 -29.092,-13.826 -60.97,2.5217 -68.551,35.153 l -2.614,11.252 1.122,-12.329 c 0.77211,-8.4863 0.08556,-12.747 -2.203,-13.671 -4.0006,-1.6149 -5.8517,-6.2131 -4.2508,-10.559 z m 13.215,50.738 c 2.4143,1.7824 6.1429,2.6025 8.2857,1.8226 4.6128,-1.6793 5.3926,-9.2305 0.96108,-9.3071 -2.2315,-0.0386 -2.2887,-0.80774 -0.20887,-2.817 3.6554,-3.5312 12.625,-0.57745 14.583,4.803 1.8353,5.0416 -5.2409,16.086 -10.251,15.999 -1.9997,-0.0345 -6.8138,-3.1408 -10.698,-6.9023 -3.8841,-3.7615 -5.0866,-5.3809 -2.6722,-3.5984 z m 5.0156,182.75 c 8.3314,-33.893 27.186,-67.34 53.346,-94.635 7.4796,-7.804 30.874,-26.085 51.988,-40.625 67.838,-46.716 106.6,-81.251 120.08,-106.99 13.503,-25.776 18.408,-57.379 12.068,-77.766 -3.5094,-11.285 -18.78,-26.022 -31.608,-30.503 -12.229,-4.2719 -30.673,-2.5089 -39.415,3.7668 -13.322,9.5639 -14.088,26.182 -1.3057,28.314 3.9778,0.66357 5.8484,-0.7995 7.1372,-5.5828 1.4642,-5.4344 2.5237,-6.049 6.554,-3.8016 11.866,6.617 0.96428,28.026 -14.139,27.764 -8.652,-0.14954 -19.693,-10.46 -19.558,-18.263 0.29671,-17.164 24.132,-37.959 43.133,-37.63 5.5266,0.0955 5.987,-0.53882 3.6694,-5.0549 -4.9127,-9.5736 6.133,-20.339 16.553,-16.133 5.6704,2.2891 5.2886,10.925 -0.45853,10.368 -9.4942,-0.91885 -4.6527,8.7828 7.9413,15.913 34.047,19.277 42.397,61.672 20.764,105.43 -13.474,27.253 -62.249,70.343 -128.09,113.16 -37.303,24.258 -59.4,44.401 -76.054,69.324 -21.075,31.541 -30.235,57.162 -32.846,91.871 -1.2539,16.667 -1.1111,17.885 0.85311,7.267 13.302,-71.909 57.496,-117.78 130.88,-135.84 29.518,-7.2665 71.443,-11.905 130.4,-14.425 101.01,-4.3187 155.46,-15.918 210.19,-44.783 22.602,-11.919 62.079,-48.58 78.408,-72.816 14.849,-22.038 20.844,-29.123 22.868,-27.027 2.9483,3.0518 -25.118,43.344 -43.561,62.538 -55.707,57.971 -122.96,80.738 -261.62,88.569 -85.945,4.8535 -122.37,10.254 -158.2,23.459 -60.036,22.126 -98.841,72.538 -105.75,137.38 -1.6701,15.679 -1.1487,21.163 3.1346,32.971 2.8259,7.7903 5.1368,14.26 5.1356,14.377 -0.0014,0.11743 -1.6476,0.18488 -3.6587,0.15015 -9.6696,-0.16718 -15.964,-71.8 -8.8517,-100.73 z m 13.384,-90.27 c 10.606,-31.276 14.847,-40.598 20.494,-45.057 21.925,-17.312 20.833,7.1031 -1.5702,35.087 -6.1394,7.669 -15.964,23.073 -21.833,34.232 -5.8686,11.159 -10.624,19.138 -10.568,17.731 0.05665,-1.4066 6.121,-20.303 13.477,-41.993 z m 2.3566,-357.67 c 2.2445,-3.0895 6.2002,-5.5806 8.7902,-5.5358 3.6547,0.0632 4.5937,1.8806 4.193,8.1169 -0.28397,4.4195 0.90894,8.565 2.6509,9.2121 1.742,0.6474 15.765,-11.128 31.162,-26.167 41.115,-40.16 71.952,-54.02 117.88,-52.984 82.652,1.8642 148.32,71.351 147.1,155.65 -0.52795,36.542 -15.27,86.364 -33.813,114.28 -15.325,23.068 -50.438,56.161 -69.049,65.077 -2.1289,1.0197 -0.38287,-0.76166 3.88,-3.9594 48.793,-36.6 71.256,-67.354 85.512,-117.07 8.5052,-29.662 9.4903,-75.105 2.165,-99.875 -12.808,-43.31 -44.278,-76.955 -89.916,-96.132 -21.376,-8.9819 -59.152,-12.623 -82.634,-7.9637 -55.566,11.025 -105.13,60.405 -117.53,117.1 -1.9453,8.8924 -2.2392,9.2147 -2.2951,2.5194 -0.03524,-4.2232 2.2727,-13.972 5.1288,-21.664 6.556,-17.657 6.5698,-17.311 -0.63642,-16.062 -4.3686,0.75668 -7.5408,-0.9154 -11.412,-6.0159 -6.3916,-8.4208 -6.5632,-11.118 -1.1797,-18.528 z m -2.3643,496.24 c 5.8196,-33.98 28.2,-68.462 54.733,-84.33 13.738,-8.2156 11.588,-4.0985 -4.2106,8.0663 -31.958,24.606 -45.101,50.439 -48.393,95.116 -1.1395,15.463 -2.2114,24.657 -2.3823,20.432 -0.17078,-4.2255 -0.71006,-11.72 -1.1983,-16.655 -0.48825,-4.9349 0.16495,-15.118 1.4513,-22.629 z m 9.1224,-419.24 c 0.52084,3.8989 0.40557,9.655 -0.2561,12.791 -0.66151,3.1359 -1.0878,-0.0541 -0.94693,-7.0893 0.14082,-7.0352 0.68219,-9.6012 1.203,-5.702 z m -7.403,470.08 c 2.0038,-2.9859 2.5302,-2.377 2.4705,2.8577 -0.12408,10.892 14.308,28.905 38.891,48.541 5.9904,4.785 6.272,5.3784 1.364,2.8751 -8.3812,-4.2754 -29.572,-24.922 -38.291,-37.307 -7.9242,-11.256 -8.0202,-11.624 -4.435,-16.967 z m 9.3923,-443.85 c 2.3056,11.414 6.431,19.216 10.97,20.743 6.9483,2.3384 10.657,-0.8551 9.4018,-8.0966 -1.4146,-8.1626 4.5608,-10.492 11.129,-4.338 6.7146,6.2912 6.0455,15.593 -1.6568,23.034 -11.773,11.373 -22.652,6.4614 -27.962,-12.625 -2.0324,-7.3039 -3.5205,-15.659 -3.3069,-18.567 0.37608,-5.1221 0.42054,-5.1266 1.4257,-0.15064 z m -1.1202,409.44 c 1.4221,-0.84546 2.5646,-0.31775 2.5389,1.1722 -0.02576,1.4903 -1.1981,2.6896 -2.6052,2.6653 -1.4071,-0.0243 -2.5496,-0.5517 -2.5389,-1.1726 0.01072,-0.62024 1.1831,-1.8199 2.6052,-2.665 z m 4.3644,-21.677 c 2.1938,0.038 3.2571,1.2078 2.3632,2.6 -0.89393,1.3919 -2.7086,2.5123 -4.0328,2.4894 -1.324,-0.0229 -2.3875,-1.193 -2.3631,-2.6 0.02433,-1.4072 1.8392,-2.5273 4.0328,-2.4894 z m 4.3093,-17.839 c 4.5188,0.0781 4.8885,0.724 2.2027,3.8487 -3.262,3.7951 -7.7509,2.8968 -7.6743,-1.5353 0.0229,-1.3242 2.4852,-2.3649 5.4716,-2.3134 z m 7.6272,-15.223 c 2.8143,0.0486 5.099,1.1165 5.0772,2.3729 -0.04972,2.876 -6.7507,5.4433 -8.7648,3.3582 -3.0264,-3.1328 -1.2991,-5.8173 3.6876,-5.7311 z m 14.24,-117.91 c 5.3844,-4.6981 22.015,-17.429 36.957,-28.291 42.774,-31.096 54.118,-40.227 78.896,-63.509 14.787,-13.894 19.958,-17.792 14.261,-10.751 -11.918,14.73 -45.584,43.149 -86.788,73.26 -18.532,13.543 -38.074,28.149 -43.426,32.458 -12.637,10.172 -12.564,7.8835 0.1002,-3.1672 z m -3.7407,102.74 c 6.0998,0.10541 6.7185,4.0457 0.96411,6.1405 -5.756,2.0957 -6.2216,1.9146 -6.1472,-2.3914 0.03686,-2.1321 2.3405,-3.7982 5.1831,-3.7491 z m 10.243,-13.755 c 2.8821,-1.7133 10.448,1.1066 10.4,3.8757 -0.0479,2.7692 -7.707,5.3256 -10.528,3.5139 -1.2664,-0.81317 -2.2852,-2.494 -2.2637,-3.735 0.0215,-1.2411 1.0977,-2.8856 2.3914,-3.6546 z m 13.726,179.73 c 4.8669,2.4249 8.3866,4.8552 7.8219,5.4006 -1.1906,1.1499 -16.721,-6.8868 -16.691,-8.6376 0.0111,-0.6445 4.0021,0.8118 8.8688,3.2369 z m 0.9352,-191.71 c 1.9732,-1.9062 11.353,0.87537 11.31,3.3538 -0.0476,2.7501 -7.7195,5.2932 -10.528,3.4896 -2.5982,-1.6685 -2.9503,-4.7488 -0.78218,-6.8434 z m 63.416,-91.682 c 20.963,-9.1376 44.711,-19.94 52.774,-24.005 13.571,-6.842 15.382,-7.1447 24.382,-4.0714 13.887,4.7413 16.5,7.3837 13.184,13.331 -3.9559,7.0942 -16.131,11.235 -41.232,14.023 -12.124,1.3467 -36.39,6.1155 -53.925,10.598 -17.535,4.4818 -32.201,7.8318 -32.59,7.444 -0.3891,-0.38757 16.444,-8.1813 37.407,-17.319 z m 61.689,-14.077 c 0.86478,-0.83539 -0.63576,-1.4661 -3.3346,-1.4016 -2.9825,0.0709 -3.5992,0.66693 -1.5724,1.5189 1.8341,0.77081 4.0422,0.71838 4.9071,-0.11731 z m 11.608,-2.2098 c 1.7712,-0.67914 0.3421,-1.2849 -3.1757,-1.3457 -3.5177,-0.0608 -4.9669,0.49518 -3.2202,1.2352 1.7466,0.74023 4.6248,0.78998 6.3959,0.11054 z m -106.18,190.9 c 12.964,-6.6526 28.75,4.8417 22.368,16.287 -3.1044,5.5673 -7.5248,5.9678 -7.4333,0.6734 0.0895,-5.1767 -9.8906,-5.0996 -11.987,0.0921 -3.2498,8.0501 2.5824,16.995 16.348,25.072 11.633,6.826 16.269,8.033 31.846,8.2932 69.785,1.1647 100.81,-77.166 52.195,-131.77 -11.339,-12.737 -28.561,-23.304 -44.633,-27.386 -5.8519,-1.4863 -7.3661,-2.4915 -3.9004,-2.5888 13.383,-0.37628 34.981,11.308 50.392,27.261 19.239,19.916 26.28,37.671 25.806,65.074 -0.564,32.627 -16.313,56.024 -46.721,69.413 -18.098,7.9687 -21.951,11.84 -14,14.066 6.5386,1.8312 5.89,9.3646 -0.90842,10.553 -6.224,1.0873 -14.978,-7.4374 -13.405,-13.054 0.98218,-3.5071 -0.7802,-4.8668 -8.0523,-6.2137 -24.731,-4.5786 -35.812,-10.765 -46.374,-25.889 -8.7194,-12.486 -9.4082,-25.843 -1.5409,-29.88 z m 41.85,-249.36 c 1.8983,-5.0173 5.9018,-3.6242 5.8043,2.0197 -0.0487,2.8142 -1.1717,5.098 -2.4958,5.0751 -3.2748,-0.0566 -4.7635,-3.249 -3.3085,-7.0948 z m 20.525,122.89 c 8.5422,-0.037 21.75,1.8973 29.352,4.2983 28.532,9.0128 61.567,29.998 71.264,45.27 4.7597,7.4957 5.5738,22.521 1.5517,28.636 -4.0029,6.0856 -15.387,-2.5543 -23.444,-17.793 -8.7516,-16.552 -32.733,-39.557 -50.925,-48.85 -7.7935,-3.9815 -20.731,-8.1963 -28.75,-9.3661 l -14.58,-2.1274 15.531,-0.067 z m 80.946,44.569 c 6.2246,6.3236 11.327,10.922 11.339,10.219 0.0122,-0.70361 -5.0707,-6.4533 -11.295,-12.777 -6.2245,-6.3239 -11.327,-10.922 -11.339,-10.219 -0.0122,0.70331 5.0708,6.453 11.295,12.777 z m -85.28,-184.34 c 1.3239,-0.78686 3.143,-0.19244 4.0427,1.321 2.2746,3.8265 -0.91348,10.814 -4.023,8.8178 -3.2009,-2.0555 -3.2129,-8.2405 -0.0197,-10.139 z m 13.19,-16.494 c 1.8978,-2.8903 3.1705,-3.0585 5.4313,-0.71832 3.7355,3.867 0.99618,11.044 -4.181,10.955 -4.4101,-0.0762 -4.961,-4.5861 -1.2503,-10.237 z m 23.125,146.57 c 2.1128,-0.0884 15.893,1.7648 30.622,4.1187 45.742,7.3094 71.204,16.183 116.39,40.564 38.964,21.023 49.786,24.798 60.211,21.003 5.1801,-1.8854 5.5128,-11.147 0.4035,-11.235 -4.6433,-0.0803 -5.0342,-4.3234 -0.5387,-5.848 5.5384,-1.8786 12.097,3.4067 11.989,9.6612 -0.23734,13.731 -18.154,17.319 -40.033,8.0188 l -15.016,-6.3837 12.234,13.105 c 6.7288,7.2076 13.905,15.715 15.948,18.906 2.6477,4.1356 5.3473,5.4206 9.4045,4.4764 7.1616,-1.6665 14.03,5.3436 7.5483,7.7036 -2.2886,0.83325 -5.3102,0.77667 -6.7145,-0.12512 -1.4043,-0.90179 -0.0263,2.9322 3.0623,8.52 3.6619,6.6251 7.3833,10.135 10.696,10.089 2.7944,-0.0385 5.5561,1.3775 6.1372,3.1469 0.58099,1.7695 -0.88959,3.1835 -3.2681,3.1425 -3.115,-0.0539 -3.8306,1.1862 -2.5587,4.4342 3.9376,10.055 3.8548,12.857 -0.42581,14.415 -5.9417,2.1631 -7.9549,-0.38116 -4.4831,-5.6656 2.1047,-3.2034 1.8524,-6.4545 -0.98492,-12.69 -3.6737,-8.0733 -7.9361,-11.204 -8.0279,-5.8968 -0.0243,1.4069 -1.1954,2.5384 -2.6026,2.5141 -3.2693,-0.0565 -3.1891,-8.491 0.11114,-11.679 3.8198,-3.6899 -20.509,-35.686 -39.416,-51.839 -28.992,-24.769 -65.696,-41.154 -115.98,-51.776 -41.308,-8.726 -48.777,-10.51 -44.712,-10.68 z m 14.389,-92.201 c 2.8402,-1.4576 5.1541,-2.0745 5.142,-1.3709 -0.0122,0.70361 -2.346,2.4717 -5.1862,3.9293 -2.8402,1.4573 -5.1541,2.0742 -5.142,1.3709 0.0122,-0.70361 2.346,-2.472 5.1862,-3.9293 z m 7.077,-347.72 c 2.6988,-0.0642 4.1994,0.5665 3.3346,1.4019 -0.86487,0.83569 -3.073,0.88812 -4.9071,0.11728 -2.0268,-0.85193 -1.41,-1.4479 1.5724,-1.5192 z m 14.224,3.7491 c 14.054,2.605 43.317,18.343 56.253,30.254 39.418,36.294 60.148,98.298 51.301,153.44 -2.1553,13.432 -2.3922,11.386 -1.9292,-16.668 0.41873,-25.368 -0.58917,-36.208 -4.8744,-52.431 -14.094,-53.352 -46.731,-91.924 -92.868,-109.75 -10.376,-4.0093 -13.393,-5.8621 -7.8822,-4.8409 z m 21.243,-18.114 c 4.1362,1.4585 8.5377,9.1823 6.4062,11.241 -0.96118,0.92838 -3.5124,0.9758 -5.6693,0.10504 -4.537,-1.8316 -5.2584,-12.941 -0.73682,-11.346 z m 27.34,15.248 c 3.216,0.0556 7.9089,9.2192 5.7763,11.28 -3.8694,3.7378 -8.4582,1.0321 -8.3552,-4.9262 0.0608,-3.5178 1.2213,-6.3767 2.579,-6.3532 z m 9.3853,425.47 c 27.104,-0.27655 81.753,-6.2127 106.35,-11.552 68.858,-14.947 117.08,-38.942 152.55,-75.91 8.9905,-9.3701 15.168,-15.33 13.727,-13.243 -31.978,46.307 -91.832,79.679 -168.88,94.163 -30.23,5.6828 -82.946,9.6965 -105.06,7.9993 l -16.612,-1.2746 17.933,-0.1833 z m -3.0999,-43.648 c 3.5177,0.0608 4.9468,0.66656 3.1756,1.3457 -1.7712,0.67944 -4.6493,0.6297 -6.3959,-0.11054 -1.7466,-0.73999 -0.29748,-1.296 3.2203,-1.2352 z m 16.891,-360.39 c 1.8666,0.65112 3.7331,3.8189 4.1477,7.0396 0.51227,3.9788 -0.33395,5.4761 -2.6399,4.6718 -1.8666,-0.65143 -3.7331,-3.8192 -4.1477,-7.0396 -0.51227,-3.9787 0.33395,-5.4761 2.6399,-4.6718 z m 61.342,424.08 c 65.563,2.044 96.915,5.9763 132.69,16.643 40.262,12.003 75.888,34.11 92.27,57.254 15.945,22.527 22.176,40.254 22.962,65.323 0.63586,20.288 0.039,23.678 -6.3836,36.25 -7.3701,14.426 -21.843,27.66 -33.121,30.284 -4.8054,1.1181 -8.2874,-0.09 -13.064,-4.5331 -11.262,-10.475 -9.1516,-27.604 4.0406,-32.802 6.7798,-2.6718 8.5175,-2.5203 11.96,1.0436 3.6948,3.8251 3.5342,4.5562 -1.9413,8.8353 -5.0967,3.9833 -5.5466,5.4894 -3.077,10.302 6.3071,12.291 23.499,2.8838 32.572,-17.823 2.4439,-5.5774 4.4268,-16.912 4.5878,-26.226 0.87952,-50.881 -32.14,-91.999 -92.429,-115.1 -43.588,-16.701 -84.373,-23.827 -162.6,-28.41 l -51.131,-2.9947 62.665,1.9536 z m -42.985,-400.27 c 3.6158,4.9524 2.8696,9.2693 -1.589,9.1922 -1.324,-0.0229 -2.316,-3.2071 -2.2044,-7.0757 0.19235,-6.6647 0.39148,-6.7759 3.7933,-2.1165 z m 10.18,23.967 c 2.4288,-2.3463 6.0304,0.6022 5.9565,4.876 -0.0351,2.0277 -1.7906,3.6568 -3.9013,3.6204 -3.8535,-0.0666 -5.1658,-5.4915 -2.0553,-8.4964 z m -0.0782,147.35 c 0.83539,0.86481 0.88812,3.0731 0.11722,4.9072 -0.85202,2.0268 -1.4477,1.4102 -1.519,-1.5726 -0.0644,-2.6987 0.56634,-4.1994 1.4018,-3.3347 z m 2.907,-11.519 c 0.67929,1.7711 0.62955,4.6493 -0.11056,6.3959 -0.74011,1.7466 -1.296,0.29748 -1.2351,-3.2203 0.0608,-3.5178 0.66641,-4.9468 1.3457,-3.1757 z m 18.906,171.75 c 24.879,-4.2877 55.002,-16.603 59.872,-24.477 2.1139,-3.4185 1.4434,-5.7059 -3.0156,-10.289 l -5.7339,-5.8928 -4.5259,5.7466 c -3.5736,4.537 -5.1746,5.0748 -7.6084,2.5551 -11.432,-11.834 12.343,-29.381 25.561,-18.865 4.9313,3.9236 9.7878,13.13 9.697,18.383 -0.13184,7.6263 -15.851,21.415 -30.222,26.511 -14.839,5.2613 -57.557,12.796 -64.084,11.303 -2.0821,-0.47614 6.945,-2.7149 20.06,-4.9752 z m -11.321,-280.65 c 1.575,-2.3932 2.7747,-2.5661 3.9604,-0.57132 1.9495,3.2798 -0.392,7.944 -3.9571,7.8823 -2.9748,-0.0514 -2.9759,-2.7942 -0.003,-7.311 z m 73.572,506.24 c 1.57,-0.93317 2.0959,-4.8074 1.2332,-9.0865 -1.2727,-6.3133 -0.7095,-7.446 3.6652,-7.3704 6.7889,0.11731 9.1422,4.3582 3.9623,7.1404 -2.9124,1.5648 -3.6365,4.1541 -2.5123,8.9857 0.86865,3.7335 2.3294,6.7027 3.246,6.5986 0.91656,-0.10376 3.1033,-0.0272 4.8592,0.16962 4.5554,0.51111 3.8806,5.4883 -0.73328,5.4086 -2.1106,-0.0365 -3.9772,1.3707 -4.1478,3.1272 -0.17062,1.7565 -1.0857,0.30115 -2.0334,-3.2341 -1.1002,-4.1036 -3.2851,-6.1828 -6.0434,-5.7504 -4.7701,0.74792 -5.812,-3.4231 -1.4959,-5.9888 z m 9.5956,28.409 c 3.8241,-2.2731 7.6594,1.0371 7.5646,6.5286 -0.12088,6.9921 -4.5735,8.5561 -7.5951,2.6677 -3.2172,-6.2697 -3.2138,-7.2678 0.0306,-9.1964 z m 42.138,-225.75 c 1.3241,0.0229 3.0991,1.2051 3.9443,2.6273 0.84534,1.4219 -0.25787,2.5547 -2.4516,2.5167 -2.1937,-0.0379 -3.9686,-1.2204 -3.9443,-2.6273 0.0244,-1.4072 1.1276,-2.5396 2.4516,-2.5167 z m 27.082,-318.52 c 7.9814,-8.9608 19.08,-8.6734 37.313,0.96552 38.093,20.138 60.452,65.168 56.084,112.95 -1.4795,16.183 -7.3229,35.094 -10.825,35.034 -0.42889,-0.007 0.8523,-7.1828 2.8471,-15.945 10.221,-44.896 -0.81433,-89.162 -28.302,-113.53 -13.572,-12.03 -26.29,-16.062 -34.442,-10.92 -7.4267,4.6847 -8.017,15.185 -1.0715,19.058 2.7882,1.5545 5.084,1.9804 5.1019,0.94601 0.0179,-1.0347 1.3635,-0.50314 2.9901,1.1807 4.4624,4.6194 -4.8249,13.284 -14.067,13.125 -19.12,-0.3305 -29.11,-27.733 -15.627,-42.87 z m -5.0521,311.22 c 2.1107,0.0365 3.8176,1.2175 3.7933,2.6247 -0.0244,1.4069 -1.7711,2.5285 -3.8818,2.492 -2.1107,-0.0365 -3.8177,-1.2178 -3.7933,-2.6247 0.0243,-1.4072 1.7712,-2.5285 3.8818,-2.492 z m 16.806,-9.946 c 2.8142,0.0486 5.0968,1.2396 5.0725,2.6468 -0.0244,1.4069 -2.3467,2.5186 -5.161,2.4699 -2.8141,-0.0487 -5.0968,-1.2399 -5.0724,-2.6468 0.0243,-1.4072 2.3468,-2.5186 5.161,-2.47 z m 8.8713,-118.42 c 0.95435,-0.92194 5.7269,-1.607 10.606,-1.5226 14.549,0.25146 28.367,-4.9287 40.375,-15.136 13.249,-11.262 24.914,-32.106 25.191,-45.012 0.43292,-20.188 14.949,-62.855 24.46,-71.896 4.0889,-3.8864 4.6494,-3.9008 6.0129,-0.15567 1.0947,3.0073 4.0358,0.0685 10.814,-10.804 18.15,-29.115 40.068,-44.382 76.668,-53.401 10.339,-2.5476 21.517,-5.3699 24.842,-6.2714 5.0051,-1.3574 5.8578,-0.80966 4.9584,3.1862 -0.7561,3.3589 -2.9252,4.5866 -7.1364,4.039 -7.7202,-1.0044 -41.253,7.5276 -53.65,13.65 -5.2197,2.5779 -14.384,8.7624 -20.364,13.743 -11.324,9.4304 -32.163,37.886 -32.27,44.064 -0.0338,1.9563 -4.1566,7.2875 -9.1617,11.847 -5.0051,4.5594 -9.0914,9.807 -9.0806,11.661 0.0128,2.2054 0.90869,1.9066 2.5899,-0.86401 5.9861,-9.8631 19.959,-14.681 55.68,-19.198 19.517,-2.4683 37.511,-5.0809 39.986,-5.806 6.5955,-1.9318 5.7141,9.3762 -1.4124,18.121 -3.1342,3.8457 -5.8732,9.8495 -6.0866,13.342 -0.21948,3.5909 -3.6654,9.0707 -7.9333,12.615 -4.15,3.4467 -7.7596,8.6191 -8.0215,11.495 -0.54724,6.0085 -10.229,14.45 -16.45,14.342 -2.3198,-0.0401 -5.7825,2.3386 -7.6948,5.2861 -3.5394,5.4554 -7.5217,5.5071 -26.003,0.33716 l -6.3671,-1.7814 5.6824,4.374 c 7.4968,5.7704 7.0442,14.566 -1.1314,21.985 -5.0912,4.6198 -10.593,6.2966 -23.906,7.2851 -13.055,0.96954 -22.508,3.7826 -38.577,11.481 -11.707,5.6088 -25.569,10.893 -30.805,11.743 -5.236,0.84979 -10.964,2.6508 -12.729,4.0016 -5.7325,4.3881 -14.146,-1.8608 -9.0862,-6.7486 z m 89.564,-34.286 c 2.2198,-0.80823 4.0566,-2.6568 4.0817,-4.108 0.0509,-2.9434 -8.341,-3.7611 -11.113,-1.0831 -2.8572,2.7602 2.6142,6.7991 7.0317,5.1911 z m 7.6854,7.6268 c 8.3814,-1.9503 14.196,-12.777 9.356,-17.418 -2.6806,-2.5708 -3.0294,-2.3048 -1.8039,1.3758 1.7715,5.3204 -6.5604,14.544 -13.037,14.432 -2.3452,-0.0405 -3.5624,0.65222 -2.7049,1.5402 0.85748,0.8877 4.5428,0.9195 8.1897,0.071 z m -2.1893,-45.059 c 1.8151,-2.0801 4.9416,-5.1928 6.9478,-6.9175 3.1122,-2.6755 3.0666,-3.1459 -0.31049,-3.2042 -2.1771,-0.0377 -5.2523,2.5002 -6.8339,5.6399 -3.8504,7.643 -3.7887,9.0489 0.19653,4.4819 z m 16.239,-13.026 c 9.6603,1.1148 20.705,-6.586 18.425,-12.847 -2.0637,-5.6691 -16.432,-5.8643 -22.787,-0.31018 -6.9358,6.0621 -4.9393,12.084 4.362,13.158 z m -2.1614,-10.853 c 5.0552,-1.8404 9.8198,2.1581 7.2816,6.1107 -2.5616,3.9891 -11.71,3.2155 -11.637,-0.98401 0.0339,-1.96 1.9938,-4.2672 4.3553,-5.1267 z m 19.371,31.699 c 1.5092,-1.8621 6.2179,-4.4982 10.464,-5.858 4.2462,-1.3605 7.7495,-4.1721 7.7854,-6.2492 0.0359,-2.0765 2.6812,-5.2068 5.8783,-6.956 4.7667,-2.6076 8.6932,-13.203 4.9172,-13.269 -0.58856,-0.0102 -2.9371,-0.7724 -5.2191,-1.6934 -3.3829,-1.3658 -3.8694,-0.47363 -2.6351,4.8312 1.1928,5.1257 0.38837,6.8425 -3.791,8.0898 -3.5259,1.0524 -5.1423,3.4656 -4.8197,7.1958 0.39832,4.6066 -1.0068,5.7297 -7.8434,6.2701 -5.1588,0.40753 -8.3527,2.0567 -8.392,4.3334 -0.0383,2.2111 -2.8693,3.7797 -7.1057,3.9371 l -7.0421,0.2618 7.5297,1.2457 c 4.4629,0.73852 8.6472,-0.13324 10.274,-2.1397 z m 25.909,-38.472 c -2.1848,5.4119 3.1937,4.2366 11.25,-2.4587 8.7907,-7.3055 7.8309,-8.6938 -5.0567,-7.3153 -6.5678,0.70276 -8.9869,1.9158 -7.3009,3.6612 1.387,1.4357 1.8854,4.1865 1.1077,6.1127 z m -148.64,210 c 2.5962,-2.5077 11.166,-1.9459 11.12,0.72894 -0.0578,3.3422 -8.267,5.7832 -10.762,3.2 -1.1746,-1.2158 -1.3354,-2.9836 -0.35718,-3.9289 z m 3.3024,82.838 c 1.4071,0.0243 4.266,1.1902 6.353,2.5908 2.0871,1.4006 2.6434,2.5264 1.2363,2.5021 -1.4071,-0.0243 -4.266,-1.1899 -6.3531,-2.5905 -2.087,-1.4006 -2.6434,-2.5267 -1.2363,-2.5024 z m 12.137,5.3296 c 4.558,-0.10364 32.141,16.109 46.683,27.439 13.681,10.659 28.757,28.381 34.386,40.42 0.99524,2.1284 -0.71271,0.37158 -3.7955,-3.9043 -13.892,-19.269 -39.467,-42.178 -58.985,-52.835 -11.155,-6.0911 -19.385,-11.095 -18.288,-11.12 z m 6.0095,-104.9 c 4.9961,0.0864 10.292,3.3809 8.9048,5.5402 -2.4134,3.7582 -11.391,2.3757 -11.32,-1.7433 0.0365,-2.1108 1.1235,-3.8193 2.4155,-3.7969 z m 7.332,97.374 c 2.1937,0.0379 3.9686,1.2201 3.9443,2.6273 -0.0243,1.4069 -1.1276,2.5396 -2.4516,2.5167 -1.324,-0.0228 -3.099,-1.2053 -3.9443,-2.6273 -0.84528,-1.4223 0.25794,-2.5547 2.4516,-2.5168 z m 12.33,-112.39 c 3.5178,0.0608 6.3782,1.1387 6.3564,2.395 -0.0516,2.9841 -7.573,5.6887 -10.533,3.7878 -4.4609,-2.8646 -2.1456,-6.2921 4.1764,-6.1829 z m 8.004,120.42 c 2.0276,0.0351 4.3782,1.2272 5.2235,2.6495 0.84534,1.4219 -0.8335,2.5447 -3.7308,2.4946 -2.8972,-0.0501 -5.2478,-1.2426 -5.2235,-2.6494 0.0244,-1.4072 1.7032,-2.5297 3.7308,-2.4947 z m 4.9115,-139.66 c 5.3979,-1.9647 13.28,1.2586 10.166,4.1572 -3.9279,3.6552 -12.042,3.9898 -13.18,0.54315 -0.58441,-1.7689 0.77222,-3.8837 3.0146,-4.7003 z m 13.309,150.64 c 2.6157,0.55066 4.4484,2.1318 4.0726,3.5136 -1.0067,3.7019 -6.4804,2.9575 -7.7406,-1.0532 -0.70844,-2.2543 0.57092,-3.1125 3.668,-2.4604 z m 14.918,13.018 c 2.4995,0.5296 5.0335,2.5209 5.6312,4.4249 0.69519,2.2144 -0.5509,3.1154 -3.4577,2.4994 -2.4996,-0.5293 -5.0336,-2.5206 -5.6313,-4.4249 -0.69513,-2.2144 0.55096,-3.115 3.4578,-2.4994 z m 27.455,-390.19 c 16.76,-39.815 35.45,-62.832 62.376,-76.816 5.6811,-2.9501 12.312,-6.6692 14.735,-8.264 5.1898,-3.4157 8.4443,-1.0442 6.1991,4.5175 -0.87073,2.1567 -4.1088,3.878 -7.1958,3.8246 -8.2794,-0.14313 -28.968,13.557 -42.619,28.222 -12.716,13.661 -23.56,32.306 -35.637,61.274 -4.0782,9.7821 -7.4305,16.058 -7.4494,13.946 -0.019,-2.1118 4.2968,-14.129 9.5906,-26.705 z m -12.305,406.41 c 2.2109,0.89288 4.5013,1.6314 5.0899,1.6415 0.58844,0.0102 1.05,1.1696 1.0256,2.5768 -0.0243,1.4069 -2.3467,2.5186 -5.161,2.47 -2.994,-0.0518 -5.0872,-1.7942 -5.0456,-4.1999 0.0466,-2.6977 1.4531,-3.5534 4.0911,-2.4884 z m 12.139,17.118 c 4.4587,0.0771 7.3461,4.3231 5.206,7.6556 -2.1633,3.3686 -9.0292,0.18256 -8.9542,-4.1556 0.0339,-1.96 1.7206,-3.535 3.7482,-3.4999 z"
       inkscape:connector-curvature="0" />
    <path
       id="path3470"
       d="m 8.962,709.53 c 14.154,-0.17767 25.73,7.8782 33.466,23.288 8.805,17.539 8.5389,28.089 -1.8775,74.448 -4.5451,20.229 -9.5495,46.54 -11.121,58.469 l -2.8567,21.69 1.5052,-24.286 c 0.82787,-13.357 4.6876,-40.353 8.5771,-59.991 8.6985,-43.918 8.7802,-47.748 1.3751,-64.399 -6.2324,-14.014 -13.891,-20.889 -28.984,-26.02 l -9.0834,-3.0876 8.9989,-0.1128 z M 33.19,638.025 c 1.4071,0.0243 2.5285,1.7709 2.492,3.8818 -0.10636,6.1533 4.8468,4.5441 12.284,-3.9906 25.404,-29.153 75.759,-17.854 90.947,20.408 3.8382,9.6696 4.4948,37.864 1.0728,46.069 -0.99808,2.3935 -1.6674,-5.1033 -1.4874,-16.66 0.35568,-22.817 -2.4073,-30.96 -14.959,-44.088 -15.123,-15.818 -37.534,-21.349 -56.287,-13.891 -16.186,6.4367 -25.154,17.416 -29.812,36.495 -1.8439,7.5534 -1.9688,7.0613 -0.81557,-3.213 1.0697,-9.5298 0.54907,-12.146 -2.4267,-12.198 -2.3357,-0.0404 -3.7463,-2.5186 -3.6781,-6.4614 0.06081,-3.5178 1.2618,-6.376 2.6689,-6.3517 z m 14.214,55.759 c 6.0525,1.695 10.661,-6.0123 5.5558,-9.2911 -4.6288,-2.9725 1.3262,-5.8938 7.6657,-3.7606 6.0973,2.0519 6.7816,14.51 1.0492,19.103 -4.2322,3.3907 -12.266,1.493 -16.604,-3.9214 -2.3218,-2.8982 -1.8729,-3.3079 2.3338,-2.1296 h 8e-6 z m 0.8006,181.22 c 8.2675,-34.99 30.107,-72.349 57.739,-98.77 8.7838,-8.399 31.321,-25.706 50.082,-38.461 68.694,-46.702 103.54,-78.742 119.23,-109.64 23.02,-45.316 16.517,-86.164 -16.193,-101.71 -25.08,-11.921 -55.028,-0.90247 -55.396,20.382 -0.0925,5.35 1.3834,7.4626 6.1014,8.7338 7.7744,2.0946 11.663,-0.0939 11.776,-6.6276 0.0745,-4.3107 0.8562,-4.6271 5.3048,-2.1463 7.4887,4.1759 5.5008,17.136 -3.6324,23.682 -9.2292,6.615 -22.301,3.1433 -27.046,-7.183 -8.0868,-17.598 16.624,-44.972 40.228,-44.564 5.2067,0.09 5.9199,-0.68646 4.0507,-4.4085 -5.1252,-10.206 8.2824,-22.784 16.634,-15.605 5.0404,4.3326 4.5005,9.7192 -0.92157,9.1947 -9.4957,-0.91919 -4.3786,8.5389 9.2031,17.01 34.083,21.258 40.713,61.227 17.602,106.11 -14.986,29.107 -64.541,71.9 -137.83,119.03 -24.559,15.792 -50.787,40.578 -64.931,61.364 -20.137,29.59 -33.735,70.763 -33.54,101.55 l 0.0837,13.212 2.4867,-15.221 c 8.4295,-51.596 40.015,-96.875 82.365,-118.07 38.62,-19.331 78.381,-26.753 167.45,-31.256 114.06,-5.7655 169.08,-16.856 218.58,-44.053 32.641,-17.933 68.243,-52.076 87.768,-84.172 12.077,-19.852 19.641,-23.732 9.8527,-5.0548 -26.7,50.95 -80.609,94.877 -139.94,114.03 -44.019,14.208 -81.981,19.999 -161.57,24.648 -95.128,5.556 -133.92,12.496 -173.22,30.987 -48.871,22.998 -83.064,74.215 -88.593,132.7 -1.8487,19.558 -1.669,20.485 7.7211,39.805 5.2876,10.879 15.773,26.853 23.3,35.496 l 13.686,15.716 -14.099,-14.005 c -7.7545,-7.7027 -17.176,-19.957 -20.936,-27.233 -3.7603,-7.2753 -7.5696,-13.816 -8.4652,-14.536 -3.4438,-2.766 -9.5314,-42.064 -9.0542,-58.45 0.27529,-9.456 2.1267,-24.074 4.1139,-32.485 z m 0.7739,-52.662 c 0.5932,-0.57611 6.7291,-18.224 13.635,-39.217 12.94,-39.334 19.229,-49.246 31.264,-49.27 4.0934,-0.008 4.4975,1.2836 2.8728,9.1878 -2.6655,12.967 -5.5145,18.331 -17.364,32.695 -5.7243,6.9387 -15.172,21.746 -20.994,32.906 -5.8224,11.16 -10.565,19.043 -10.539,17.518 0.02572,-1.5244 0.53215,-3.2432 1.1253,-3.8193 z m 26.401,-55.844 c 2.6361,-2.999 15.494,-26.108 13.647,-24.526 -3.27,2.8 -14.312,20.554 -14.45,23.232 -0.06633,1.289 0.29504,1.871 0.80283,1.2935 z m -10.773,-340.48 c 3.3289,-3.9686 6.2516,-5.1667 9.4519,-3.8749 3.4206,1.3809 3.8698,2.6076 1.717,4.6875 -3.4041,3.2884 0.19466,12.323 4.9413,12.405 1.6299,0.0282 15.332,-12.175 30.449,-27.119 29.978,-29.635 49.536,-41.658 79.411,-48.817 19.86,-4.7593 54.301,-4.2817 73.289,1.0157 50.065,13.969 90.784,54.142 105.64,104.22 7.353,24.789 6.3788,72.614 -2.0844,102.33 -12.269,43.077 -39.767,84.164 -72.089,107.72 -7.3738,5.3728 -6.0533,3.6996 4.0779,-5.1671 20.896,-18.288 37.098,-39.442 48.947,-63.906 33.816,-69.822 27.753,-145.79 -15.34,-192.22 -49.445,-53.273 -124.37,-65.961 -185.08,-31.34 -21.086,12.025 -46.064,37.63 -57.692,59.14 -5.0156,9.2776 -9.5177,16.456 -10.005,15.952 -0.48721,-0.50388 0.42816,-3.2724 2.0338,-6.1518 2.6963,-4.8355 2.3548,-5.1328 -4.4657,-3.8909 -5.9584,1.085 -8.4234,-0.0235 -12.759,-5.7356 -6.5701,-8.6563 -6.6439,-11.852 -0.44397,-19.244 z m 5.9333,77.63 c 0.59809,2.457 0.54176,7.0626 -0.12521,10.234 -0.66696,3.1721 -1.1562,1.1615 -1.0874,-4.4673 0.06888,-5.6291 0.61466,-8.2241 1.2126,-5.7671 z m -5.1201,402.36 c 5.9751,-17.744 17.571,-37.077 29.838,-49.745 11.984,-12.377 28.445,-23.851 30.767,-21.447 0.69129,0.71576 -2.7097,3.6591 -7.5579,6.5408 -10.562,6.2781 -29.636,25.669 -37.7,38.326 -10.641,16.703 -14.595,30.922 -16.919,60.846 l -2.2826,29.39 0.2139,-26.867 c 0.12259,-15.378 1.6796,-31.219 3.641,-37.044 z m 7.9308,-421.53 c 0.67086,1.7441 0.65379,5.1986 -0.03789,7.6767 -0.69167,2.4778 -1.2406,1.051 -1.2198,-3.1713 0.02081,-4.2223 0.58678,-6.2499 1.2576,-4.5055 z m 2.6232,-11.369 c 0.83539,0.86478 0.88812,3.0731 0.11714,4.9072 -0.85194,2.0268 -1.4476,1.4101 -1.5189,-1.5726 -0.06456,-2.6986 0.56633,-4.1994 1.4017,-3.3346 z m 1.2386,71.624 c 4.0648,7.8117 11.34,9.3573 16.39,3.4822 2.5812,-3.0031 2.6136,-4.5786 0.1573,-7.6446 -4.8456,-6.0483 4.2027,-8.0809 10.347,-2.3241 6.7146,6.2912 6.0455,15.593 -1.6568,23.034 -10.451,10.096 -21.53,6.4814 -27.049,-8.8254 -3.7003,-10.263 -2.3984,-15.813 1.8115,-7.722 z m -5.7264,394.65 c 1.4221,-0.84546 2.5646,-0.31775 2.5389,1.1722 -0.02576,1.4903 -1.1981,2.6896 -2.6052,2.6653 -1.4071,-0.0243 -2.5496,-0.5517 -2.5389,-1.1726 0.01072,-0.62024 1.1831,-1.8199 2.6052,-2.665 z m 4.3644,-21.677 c 2.1938,0.038 3.2571,1.2078 2.3632,2.6 -0.89393,1.3919 -2.7086,2.5123 -4.0328,2.4894 -1.324,-0.0229 -2.3875,-1.193 -2.3631,-2.6 0.02433,-1.4072 1.8392,-2.5273 4.0328,-2.4894 z m 2.6488,-16.923 c 5.6654,-2.0626 7.3753,0.34149 2.8319,3.9817 -2.5577,2.0488 -4.2326,2.1282 -5.3468,0.25403 -0.89233,-1.5012 0.23946,-3.4072 2.5149,-4.2357 z m 9.4388,-16.137 c 2.8972,0.0501 4.5362,1.2299 3.6423,2.6221 -0.89391,1.3919 -3.2843,2.5024 -5.3119,2.4673 -2.0276,-0.035 -3.6666,-1.2152 -3.6423,-2.6221 0.02433,-1.4072 2.4147,-2.5174 5.312,-2.4673 z m 19.229,-121.82 c 6.779,-5.4003 24.571,-18.697 39.538,-29.548 23.956,-17.369 49.442,-37.602 73.703,-58.51 4.1503,-3.5764 6.7835,-5.209 5.8517,-3.6276 -2.9824,5.0614 -51.485,44.556 -79.601,64.817 -14.965,10.784 -32.756,24.026 -39.535,29.427 -6.779,5.4003 -12.316,9.243 -12.304,8.5394 0.01216,-0.70361 5.5686,-5.6974 12.348,-11.098 z m -8.8811,106.65 c 2.8143,0.0486 5.099,1.1165 5.0772,2.3729 -0.0497,2.876 -6.7507,5.4432 -8.7648,3.3582 -3.0264,-3.1328 -1.2991,-5.8174 3.6875,-5.7311 z m 14.93,-12.456 c 6.6649,0.19238 6.7759,0.39172 2.1166,3.7935 -4.9526,3.6156 -9.2694,2.8696 -9.1924,-1.589 0.0229,-1.3242 3.2069,-2.316 7.0757,-2.2044 z m 14.933,-12.619 c 3.5178,0.0608 6.3781,1.1386 6.3564,2.395 -0.0516,2.984 -7.573,5.6887 -10.533,3.7878 -4.461,-2.8646 -2.1458,-6.2922 4.1764,-6.1829 z m 53.322,-89.905 c 18.111,-7.8254 41.669,-18.52 52.352,-23.766 16.421,-8.063 20.637,-9.166 27.277,-7.1368 12.842,3.9245 18.635,8.0336 17.008,12.064 -2.552,6.3215 -17.917,13.778 -28.03,13.604 -10.682,-0.18463 -60.853,9.6663 -84.635,16.618 -8.4272,2.4634 -15.678,4.1113 -16.112,3.662 -0.43426,-0.44952 14.028,-7.2203 32.139,-15.046 z m 71.219,-16.848 c 5.1509,-0.87402 8.8625,-2.1101 8.2479,-2.7464 -0.61456,-0.63635 -5.3318,-0.44116 -10.483,0.43323 -5.1509,0.87439 -8.8625,2.1104 -8.2479,2.7465 0.61456,0.63635 5.3318,0.44141 10.483,-0.43329 z m -100.22,190.53 c 9.2482,-8.9342 25.181,-1.8989 23.529,10.389 -1.0325,7.6817 -7.4699,12.304 -7.3484,5.2755 0.0452,-2.6152 -2.1965,-4.0897 -6.3259,-4.1611 -9.7413,-0.1684 -9.1758,13.322 0.96967,23.133 22.063,21.336 68.839,19.18 94.262,-4.3439 23.465,-21.712 29.837,-56.421 16.147,-87.962 -9.7661,-22.501 -30.958,-42.652 -52.448,-49.872 -8.7089,-2.9262 -13.862,-5.3507 -11.451,-5.3881 11.897,-0.18457 34.261,12.023 47.724,26.049 21.194,22.081 26.111,34.738 25.608,65.924 -0.375,23.244 -1.066,26.652 -7.5545,37.266 -9.1396,14.949 -22.473,26.198 -39.628,33.433 -15.807,6.6663 -19.804,11.034 -12.076,13.198 6.8644,1.9227 6.8075,7.7623 -0.0957,9.8225 -7.5253,2.246 -15.815,-5.9636 -13.752,-13.619 1.4567,-5.4064 0.75832,-5.859 -9.3471,-6.0568 -31.477,-0.61627 -64.681,-37.178 -48.212,-53.088 z m 46.412,-252.73 c 1.4222,-0.84546 2.5447,0.83337 2.4946,3.7306 -0.0501,2.8972 -1.2423,5.248 -2.6494,5.2237 -1.4071,-0.0243 -2.5297,-1.7032 -2.4946,-3.731 0.035,-2.0275 1.2273,-4.3782 2.6494,-5.2233 z m 18.492,124.76 c 26.741,-0.1369 65.9,17.173 89.343,39.493 10.666,10.156 12.582,13.499 13.394,23.383 0.5213,6.3428 -0.24316,13.239 -1.6988,15.325 -4.0586,5.8163 -15.449,-2.3548 -22.485,-16.13 -14.138,-27.682 -50.422,-55.084 -79.14,-59.769 l -13.665,-2.2292 14.252,-0.0729 z m 91.816,60.058 c 2.2585,3.5191 4.1297,5.0447 4.1583,3.3898 0.0286,-1.6542 -5.8856,-9.2745 -13.143,-16.933 -7.257,-7.6592 -9.1283,-9.1848 -4.1583,-3.3901 4.9701,5.7942 10.884,13.414 13.143,16.934 z m -97.43,-199.84 c 1.3239,-0.78686 3.143,-0.19244 4.0427,1.321 2.2746,3.8265 -0.91348,10.814 -4.023,8.8178 -3.2009,-2.0555 -3.2129,-8.2405 -0.0197,-10.139 z m 13.3,-16.514 c 2.202,-3.2342 2.9165,-3.2563 4.8425,-0.14838 2.7319,4.4082 0.48671,11.051 -3.2856,9.7202 -3.9061,-1.3774 -4.529,-5.2065 -1.5569,-9.5718 z m 40.883,149.31 c 12.043,-0.0914 52.069,8.754 75.093,16.594 12.656,4.3099 35.443,15.047 50.638,23.859 15.195,8.8129 31.591,17.761 36.436,19.884 11.552,5.0627 24.704,5.142 29.841,0.17938 4.5275,-4.3737 3.3491,-8.6929 -2.399,-8.7922 -2.0275,-0.035 -3.6653,-1.2917 -3.6394,-2.792 0.0259,-1.5006 3.2069,-2.3094 7.0687,-1.7971 5.5309,0.73315 7.1686,2.44 7.714,8.0378 0.59497,6.1066 -0.68024,7.6528 -9.0627,10.986 -8.7097,3.4639 -11.128,3.4529 -22.566,-0.0989 -7.0461,-2.1883 -15.097,-4.9606 -17.892,-6.1613 -2.7942,-1.2007 2.2064,5.9268 11.112,15.838 10.727,11.938 18.176,18.096 22.068,18.242 3.2312,0.12116 7.2365,1.6299 8.9009,3.3528 2.3586,2.4415 1.4855,3.1058 -3.958,3.0118 l -6.984,-0.1207 5.4439,9.8489 c 3.5222,6.3722 7.2374,9.8243 10.525,9.7787 2.7944,-0.0385 5.5561,1.3775 6.1372,3.1469 0.58099,1.7695 -0.88959,3.1835 -3.2681,3.1425 -3.115,-0.0539 -3.8306,1.1862 -2.5587,4.4342 3.9376,10.055 3.8548,12.857 -0.42581,14.415 -6.1784,2.249 -7.8969,-0.42639 -4.0663,-6.3303 2.6197,-4.0377 2.509,-6.4482 -0.58304,-12.69 -3.6956,-7.4595 -8.7564,-10.453 -8.8466,-5.2324 -0.0243,1.4069 -1.1954,2.5384 -2.6026,2.5141 -3.6059,-0.0623 -3.0338,-9.6489 0.6449,-10.804 3.7918,-1.1915 -7.9882,-19.342 -25.231,-38.876 -6.9062,-7.8239 -11.709,-15.132 -10.672,-16.24 1.0366,-1.1077 0.48413,-1.2425 -1.2277,-0.29895 -1.7206,0.94836 -8.6859,-2.4369 -15.577,-7.5702 -25.356,-18.889 -56.898,-31.42 -108.42,-43.072 -15.422,-3.488 -25.161,-6.3635 -21.642,-6.3898 z m 17.824,-438.92 c 17.889,3.2045 45.876,20.131 63.57,38.448 13.259,13.726 19.371,22.836 27.982,41.707 13.038,28.575 15.675,39.56 16.88,70.311 l 0.9033,23.048 -2.1339,-20.51 c -3.1621,-30.392 -8.0383,-48.909 -19.084,-72.471 -16.73,-35.687 -45.365,-62.817 -79.938,-75.739 -10.134,-3.7877 -13.468,-5.7418 -8.1788,-4.7942 z m 21.243,-18.085 c 4.1362,1.4585 8.5377,9.1823 6.4062,11.241 -0.96118,0.92838 -3.5124,0.9758 -5.6693,0.10504 -4.537,-1.8316 -5.2584,-12.941 -0.73682,-11.346 z m 28.665,17.83 c 2.0804,1.7882 3.7551,4.837 3.7216,6.7755 -0.0335,1.9384 -1.7878,3.4944 -3.8985,3.458 -2.4356,-0.0421 -3.7952,-2.5173 -3.7216,-6.7755 0.0981,-5.6736 0.69983,-6.2074 3.8985,-3.458 z m 28.53,422.19 c 105.67,-5.067 187.97,-34.754 237.17,-85.559 9.7161,-10.032 14.867,-14.36 11.447,-9.6185 -30.957,42.918 -91.862,75.519 -166.62,89.189 -28.985,5.2995 -84.541,9.9601 -99.951,8.3848 -5.6201,-0.57477 2.4598,-1.6528 17.955,-2.3959 z m -6.6788,-403.33 c 3.9417,1.3902 4.4697,9.4412 0.67673,10.32 -1.4132,0.3273 -2.9071,-2.1299 -3.3198,-5.4609 -0.51446,-4.1519 0.31653,-5.6795 2.6431,-4.8592 z m 17.096,22.76 c 1.4071,0.0243 2.5186,2.3468 2.4699,5.161 -0.0487,2.8142 -1.2397,5.0968 -2.6468,5.0725 -1.4071,-0.0243 -2.5186,-2.3468 -2.4699,-5.161 0.0486,-2.8142 1.2398,-5.0968 2.6468,-5.0725 z m 34.74,400.23 c 62.644,0.36688 128.33,11.131 170.64,27.964 34.15,13.586 62.601,39.441 77.073,70.041 14.789,31.271 13.576,67.02 -3.0236,89.121 -4.1055,5.4659 -12.822,12.663 -19.371,15.993 l -11.907,6.0552 -7.0499,-5.4354 c -10.328,-7.9625 -10.978,-24.036 -1.2706,-31.404 8.2437,-6.2572 8.963,-6.3304 15.267,-1.5514 4.7286,3.5847 4.6964,3.7974 -1.2775,8.4666 -5.2471,4.1007 -5.7123,5.5996 -3.2358,10.426 6.3399,12.355 23.304,2.981 32.859,-18.157 6.4412,-14.249 6.2808,-41.91 -0.35052,-60.451 -15.673,-43.821 -55.044,-73.776 -120.17,-91.429 -34.443,-9.3364 -66.357,-13.877 -121.26,-17.252 l -42.181,-2.5931 35.257,0.2064 z m -23.3,-375.22 c 2.4288,-2.3463 6.0304,0.6022 5.9565,4.876 -0.0351,2.0277 -1.7906,3.6568 -3.9013,3.6204 -3.8535,-0.0666 -5.1658,-5.4915 -2.0553,-8.4964 z m 5.6966,117.96 c 0.67932,1.7711 0.62955,4.6493 -0.11054,6.3959 -0.74011,1.7466 -1.296,0.29755 -1.2352,-3.2202 0.0608,-3.5178 0.66641,-4.9468 1.3457,-3.1757 z m 4.8481,-91.161 c 1.6166,-2.5171 2.5685,-2.5716 3.9626,-0.22607 1.0092,1.6978 0.66379,4.2185 -0.76761,5.6014 -3.3918,3.2765 -5.9677,-1.0575 -3.195,-5.3753 z m 9.2296,281.42 c 3.4452,0.0596 15.643,-2.6773 27.106,-6.0817 24.144,-7.171 37.732,-16.964 35.219,-25.385 -2.3752,-7.9578 -9.4729,-9.8411 -14.5,-3.8472 -4.635,5.5258 -10.023,2.7779 -9.8879,-5.0427 0.10245,-5.9271 11.058,-15.098 17.895,-14.98 7.2727,0.12567 20.517,13.547 20.394,20.666 -0.17209,9.9549 -15.636,22.61 -35.212,28.815 -18.199,5.769 -47.356,10.281 -47.305,7.3205 0.015,-0.86572 2.846,-1.5253 6.2911,-1.4658 z m 64.211,224.94 c 1.57,-0.93317 2.0959,-4.8074 1.2332,-9.0865 -1.572,-7.7983 1.6773,-9.6459 8.7639,-4.983 2.8388,1.8678 2.6792,2.7039 -0.88077,4.616 -3.1799,1.7082 -3.9188,4.1761 -2.752,9.1909 0.87738,3.7704 2.5028,6.3158 3.6121,5.6564 1.1093,-0.659 3.2957,0.39752 4.8586,2.3486 2.2155,2.7651 1.7459,3.8132 -2.1307,4.7559 -3.3931,0.82483 -5.347,-0.33203 -6.1519,-3.6432 -0.77341,-3.181 -2.5919,-4.3377 -5.2809,-3.3586 -4.5436,1.654 -5.6023,-2.9218 -1.2716,-5.4964 z m 9.5956,28.409 c 3.8241,-2.2731 7.6594,1.0371 7.5646,6.5286 -0.12088,6.9921 -4.5735,8.5561 -7.5951,2.6677 -3.2172,-6.2697 -3.2138,-7.2678 0.0306,-9.1964 z m 42.289,-225.75 c 1.4072,0.0243 2.5384,1.1954 2.5142,2.6026 -0.0244,1.4069 -1.1954,2.5384 -2.6026,2.5141 -1.4071,-0.0243 -2.5384,-1.1957 -2.5142,-2.6026 0.0244,-1.4072 1.1955,-2.5384 2.6026,-2.5141 z m 25.898,-317.52 c 8.0184,-9.8074 22.482,-9.2462 40.621,1.5762 38.298,22.85 58.903,66.979 53.446,114.46 -1.718,14.947 -7.3474,31.975 -10.553,31.92 -0.47906,-0.008 0.94244,-7.1813 3.1589,-15.94 2.6826,-10.601 3.7709,-23.868 3.2552,-39.684 -0.67926,-20.831 -1.8768,-26.09 -9.7184,-42.672 -10.376,-21.941 -26.312,-38.586 -41.609,-43.458 -9.1955,-2.9293 -11.034,-2.7842 -15.626,1.2284 -8.9678,7.8382 -5.6494,21.662 5.2454,21.85 5.8899,0.10181 5.8074,3.2868 -0.2215,8.5564 -18.778,16.412 -44.23,-17.981 -27.998,-37.834 z m -4.0191,310.22 c 2.1107,0.0365 3.8176,1.2175 3.7933,2.6247 -0.0244,1.4069 -1.7711,2.5285 -3.8818,2.492 -2.1107,-0.0365 -3.8177,-1.2178 -3.7933,-2.6247 0.0243,-1.4072 1.7712,-2.5285 3.8818,-2.492 z m 14.974,-8.6185 c 2.542,-1.0513 5.3273,-1.1815 6.1896,-0.28882 2.5531,2.6429 -1.1325,4.6741 -6.1533,3.3912 -4.451,-1.1375 -4.4526,-1.2753 -0.0362,-3.1024 z m 12.201,-120.04 c 1.7684,-0.52264 9.3491,-1.346 16.846,-1.829 16.086,-1.0365 30.651,-9.7832 43.626,-26.199 9.101,-11.514 10.988,-16.942 18.231,-52.433 2.5555,-12.523 7.4916,-29.136 10.969,-36.918 5.2706,-11.794 7.3273,-14.063 12.356,-13.634 4.7133,0.40231 7.5583,-2.0914 13.004,-11.398 17.219,-29.429 45.75,-49.341 79.005,-55.138 8.1356,-1.4179 16.963,-3.7479 19.617,-5.1772 3.2004,-1.7238 5.6674,-1.727 7.3266,-0.009 3.7371,3.8683 -0.45819,8.536 -5.9969,6.6725 -6.1074,-2.0555 -32.972,4.2522 -50.241,11.796 -7.2614,3.1721 -18.016,9.9679 -23.9,15.102 -11.867,10.354 -31.724,37.561 -31.829,43.61 -0.0369,2.1361 -4.1622,7.6142 -9.1674,12.174 -5.0051,4.5594 -9.123,9.6071 -9.1508,11.217 -0.0278,1.6099 3.3268,-0.33575 7.4549,-4.3234 9.2476,-8.9333 19.037,-11.699 57.553,-16.261 16.591,-1.9653 31.888,-4.2003 33.994,-4.9667 6.4189,-2.337 4.3897,11.41 -2.6945,18.253 -4.057,3.9188 -5.8438,7.905 -5.035,11.232 0.86414,3.5546 -1.4165,7.7206 -7.3391,13.406 -4.7261,4.537 -8.8054,10.451 -9.0651,13.142 -0.58594,6.0734 -11.093,14.594 -16.544,13.416 -2.2259,-0.48114 -5.2916,1.433 -6.8126,4.2532 -2.9454,5.4619 -9.0026,6.0726 -24.236,2.4442 -8.7521,-2.0847 -8.8132,-2.0436 -3.2366,2.1796 7.7107,5.8395 7.0079,13.19 -2.1026,21.99 -6.6619,6.4354 -9.4607,7.3189 -22.515,7.1073 -12.558,-0.20306 -18.481,1.4936 -37.586,10.769 -12.473,6.055 -26.966,11.706 -32.206,12.556 -5.2405,0.85065 -10.972,2.6522 -12.737,4.0031 -3.7232,2.85 -10.92,0.61688 -10.851,-3.3668 0.0259,-1.4953 1.494,-3.1472 3.2624,-3.6702 z m 88.066,-33.997 c 2.2198,-0.80823 4.0566,-2.6568 4.0817,-4.108 0.0509,-2.9434 -8.341,-3.7611 -11.113,-1.0831 -2.8572,2.7602 2.6142,6.7991 7.0317,5.1911 z m 8.0084,7.5518 c 7.8127,-1.8184 13.762,-12.701 9.4074,-17.209 -2.2556,-2.3348 -2.9765,-1.45 -3.0666,3.7651 -0.12671,7.3306 -6.0452,11.81 -16.036,12.138 -4.653,0.15259 -4.9266,0.47217 -1.2711,1.4844 2.5623,0.70941 7.4971,0.62946 10.966,-0.1778 z m -5.1197,-42.47 c 0.45825,0.008 3.4706,-2.6975 6.6942,-6.0122 3.5439,-3.644 4.8326,-6.687 3.2598,-7.697 -1.4307,-0.91876 -4.392,1.4998 -6.5808,5.3744 -4.3586,7.7161 -4.6005,8.3136 -3.3732,8.3348 z m 20.06,-15.524 c 10.139,1.0312 19.614,-6.2653 17.1,-13.169 -1.9559,-5.3729 -16.531,-5.3759 -22.676,-0.005 -7.3396,6.415 -4.9313,12.105 5.5756,13.174 z m -1.0501,-9.739 c 8.0146,0.13855 7.0336,6.1317 -1.1778,7.1953 -3.6992,0.479 -5.5468,-0.62726 -5.5007,-3.294 0.0452,-2.6124 2.3792,-3.9756 6.6785,-3.9013 z m 17.352,29.932 c 1.6628,-2.1937 5.3456,-3.9478 8.1843,-3.8987 5.778,0.0999 12.215,-6.007 10.094,-9.5759 -0.75879,-1.2761 1.5642,-3.6008 5.1619,-5.1655 4.6692,-2.0308 6.3367,-4.4849 5.826,-8.5742 -0.47461,-3.7997 1.9079,-7.9871 7.0761,-12.437 9.2587,-7.9715 8.4941,-9.3524 -4.4128,-7.9701 -7.5795,0.81177 -9.1014,1.7704 -6.9918,4.4038 2.0141,2.514 1.3065,4.3046 -2.7955,7.073 -3.424,2.3113 -4.4691,4.3644 -2.7754,5.452 4.4067,2.83 2.997,8.6533 -2.4916,10.292 -3.3199,0.99066 -4.9185,3.4678 -4.6017,7.1305 0.38904,4.4996 -1.0391,5.7566 -7.2048,6.3411 -4.2295,0.40082 -8.6387,2.3398 -9.7984,4.3091 -1.1596,1.969 -5.2203,3.7107 -9.0239,3.8702 -5.5669,0.23334 -5.195,0.52875 1.9074,1.514 6.0491,0.83899 9.7732,-0.0298 11.846,-2.7639 z m -121.41,171.58 c 6.3104,-2.2973 11.18,1.7386 5.6695,4.6986 -2.9488,1.5841 -5.3656,1.4511 -7.1475,-0.3938 -1.9136,-1.9808 -1.4861,-3.2261 1.478,-4.3048 z m 20.001,-14.866 c 3.0508,-1.8135 7.6655,0.68695 7.6061,4.121 -0.0229,1.3242 -2.3441,2.3677 -5.1583,2.3191 -5.3958,-0.0933 -6.8203,-3.8413 -2.4478,-6.4401 z m 7.1449,96.091 c 2.1937,0.0379 3.9686,1.2201 3.9443,2.6273 -0.0244,1.4069 -1.1276,2.5396 -2.4516,2.5167 -1.324,-0.0228 -3.099,-1.2053 -3.9443,-2.6273 -0.84528,-1.4223 0.25794,-2.5547 2.4516,-2.5168 z m 12.33,-112.39 c 3.5178,0.0608 6.3782,1.1387 6.3564,2.395 -0.0516,2.9841 -7.573,5.6887 -10.533,3.7878 -4.4609,-2.8646 -2.1456,-6.2921 4.1764,-6.1829 z m 8.155,120.42 c 2.1107,0.0365 3.8177,1.2175 3.7933,2.6247 -0.0243,1.4069 -1.7711,2.5285 -3.8818,2.4921 -2.1106,-0.0365 -3.8176,-1.2178 -3.7933,-2.6247 0.0244,-1.4072 1.7712,-2.5286 3.8818,-2.4921 z m 4.7605,-139.66 c 5.3979,-1.9647 13.28,1.2586 10.166,4.1572 -3.9279,3.6552 -12.042,3.9898 -13.18,0.54315 -0.58441,-1.7689 0.77222,-3.8837 3.0146,-4.7003 z m 2.9741,162.25 c 11.875,8.7499 31.646,30.338 36.719,40.094 3.7165,7.1472 3.7432,7.4847 0.16431,2.069 -2.3522,-3.5594 -13.418,-15.833 -24.592,-27.273 -11.173,-11.441 -16.705,-18.141 -12.292,-14.89 z m 9.8461,-12.046 c 2.0276,0.0351 4.3782,1.2272 5.2235,2.6494 0.84534,1.422 -0.8335,2.5447 -3.7308,2.4947 -2.8972,-0.0501 -5.2479,-1.2426 -5.2235,-2.6494 0.0243,-1.4072 1.7032,-2.5297 3.7308,-2.4947 z m 13.361,13.066 c 1.055,0.0398 3.5932,1.1727 5.6404,2.5176 4.6099,3.0281 1.6351,6.4358 -3.728,4.2707 -3.9609,-1.5992 -5.4605,-6.9221 -1.9124,-6.7883 z m 17.196,16.619 c 2.2109,0.89288 4.5013,1.6314 5.0899,1.6415 0.58844,0.0102 1.05,1.1696 1.0256,2.5768 -0.0243,1.4069 -2.3467,2.5186 -5.161,2.47 -2.994,-0.0518 -5.0872,-1.7942 -5.0456,-4.1999 0.0466,-2.6977 1.4531,-3.5534 4.0911,-2.4884 z m 11.981,-405.81 c 13.341,-34.481 37.79,-64.864 61.419,-76.33 6.8868,-3.3413 13.267,-7.236 14.178,-8.6547 0.91101,-1.4182 3.3996,-2.5488 5.5305,-2.512 6.1523,0.10635 2.7412,8.9666 -3.533,9.1767 -9.3345,0.31287 -27.701,12.328 -42.589,27.862 -12.298,12.831 -21.416,27.784 -35.853,58.792 -4.1763,8.97 -3.5798,3.1105 0.84827,-8.3338 z m 0.5014,423.94 c 2.2109,0.89294 4.5013,1.6314 5.0898,1.6415 0.58844,0.0101 1.05,1.1696 1.0256,2.5768 -0.0243,1.4069 -2.3467,2.5186 -5.161,2.4699 -2.994,-0.0518 -5.0872,-1.7942 -5.0456,-4.1999 0.0466,-2.6976 1.4531,-3.5534 4.0911,-2.4884 z"
       inkscape:connector-curvature="0" />
    <path
       id="path3472"
       d="m 7.4096,709.51 c 21.384,-0.30017 41.057,23.229 40.619,48.58 -0.09428,5.454 -3.9469,27.017 -8.5616,47.918 -4.6147,20.901 -9.6158,47.193 -11.113,58.427 l -2.7232,20.426 1.6698,-23.887 c 0.91827,-13.138 4.7576,-38.849 8.532,-57.135 3.7741,-18.286 6.9218,-36.702 6.9948,-40.924 0.38246,-22.126 -15.11,-45.143 -33.982,-50.488 l -9.8814,-2.7986 8.4464,-0.1183 z m 24.781,-71.492 c 1.4071,0.0243 2.5285,1.7709 2.492,3.8818 -0.1077,6.2307 6.2223,4.5073 12.228,-3.3296 12.527,-16.345 40.856,-22.058 60.977,-12.296 22.261,10.8 34.213,31.559 33.215,57.689 l -0.614,16.066 -1.7174,-17.368 c -3.2051,-32.414 -22.038,-53.373 -50.285,-55.959 -21.118,-1.9336 -36.666,6.4894 -47.162,25.549 -2.8103,5.1031 -4.1963,6.1316 -4.2131,3.1261 -0.0138,-2.4635 -1.7519,-4.5088 -3.8626,-4.5453 -2.3877,-0.0413 -3.7958,-2.4826 -3.727,-6.4622 0.0608,-3.5178 1.2618,-6.376 2.6689,-6.3517 z m 3.6941,23.789 c 0.83539,0.86481 0.88812,3.0731 0.11714,4.9073 -0.85195,2.0267 -1.4476,1.4101 -1.5189,-1.5726 -0.06456,-2.6986 0.56633,-4.1994 1.4017,-3.3347 z m 11.348,31.289 c 4.73,0.2489 5.6889,-0.94946 5.3928,-6.741 -0.38112,-7.4546 3.7726,-9.2151 8.9927,-3.8113 4.7427,4.9097 3.3676,14.429 -2.5204,17.45 -4.1518,2.1303 -6.7042,1.8091 -11.491,-1.4473 -7.592,-5.1639 -7.6379,-5.8329 -0.37405,-5.4509 z m 0.123,183.18 c 12.394,-53.912 44.322,-95.68 103.82,-135.81 102.12,-68.886 134.72,-107.3 136.38,-160.74 0.55789,-17.976 -0.19016,-21.923 -6.1576,-32.488 -7.9345,-14.047 -26.851,-25.456 -43.59,-26.289 l -10.365,-0.5162 8.9869,-1.73 c 4.9428,-0.95172 7.5504,-1.9066 5.7947,-2.1222 -5.2796,-0.64856 -3.4123,-12.599 2.603,-16.659 4.0156,-2.7106 6.8897,-3.0348 10.256,-1.1576 6.1812,3.447 5.8914,7.5678 -0.52463,7.4568 -8.4523,-0.14612 -6.4956,9.3782 2.9506,14.363 16.3,8.6005 25.315,17.678 31.413,31.63 5.4351,12.435 5.9775,16.662 4.6845,36.507 -1.235,18.957 -2.8238,25.093 -10.227,39.497 -15.869,30.876 -54.212,64.968 -129.71,115.33 -39.213,26.156 -62.237,47.624 -78.122,72.841 -18.581,29.496 -29.781,65.437 -29.817,95.685 l -0.02,16.634 2.4855,-15.212 c 11.464,-70.166 51.772,-115.34 121.06,-135.68 28.877,-8.476 62.844,-12.711 129.52,-16.147 112.16,-5.7811 151.27,-12.848 201.52,-36.409 31.154,-14.608 55.733,-32.059 74.696,-53.036 13.041,-14.425 36.742,-46.555 39.284,-53.256 0.5979,-1.5757 1.8922,-2.0947 2.8762,-1.1527 3.8516,3.6866 -19.302,38.64 -40.289,60.82 -52.277,55.25 -125.66,80.612 -252.57,87.288 -111.1,5.8442 -164.64,16.705 -201.94,40.961 -39.388,25.616 -66.89,72.777 -71.364,122.38 -1.8198,20.175 -1.5757,21.587 6.9936,40.467 5.009,11.036 14.632,26.058 22.077,34.466 l 13.198,14.903 -12.747,-12.541 c -31.722,-31.21 -44.432,-81.174 -33.142,-130.28 z m 13.073,-89.344 c 5.6753,-16.089 10.424,-31.146 10.551,-33.461 0.27834,-5.0331 17.02,-19.804 22.342,-19.712 8.3022,0.14349 1.4033,20.31 -13.49,39.433 -6.4895,8.3328 -15.937,22.564 -20.994,31.626 -11.446,20.51 -11.275,18.586 1.5908,-17.886 z m 15.412,-21.817 c 7.4325,-11.728 13.712,-23.744 12.42,-23.766 -1.6638,-0.0288 -17.242,26.128 -17.349,29.13 -0.05008,1.4065 2.1679,-1.0071 4.929,-5.3638 z m -12.235,-339.11 c 3.2538,-3.879 6.2787,-5.1559 9.3132,-3.9308 3.6607,1.4778 3.8959,2.51 1.2685,5.5666 -2.5608,2.9794 -2.5829,4.555 -0.10701,7.6455 1.7152,2.1408 4.3516,3.9139 5.8588,3.94 1.5072,0.0261 15.108,-12.173 30.225,-27.108 22.27,-22.003 31.157,-28.906 46.838,-36.382 25.658,-12.232 43.178,-16.257 69.001,-15.847 41.764,0.6626 76.504,15.979 106.17,46.81 30.217,31.406 42.188,64.575 40.812,113.09 -1.6481,58.12 -24.585,110.51 -63.944,146.04 -11.652,10.52 -11.505,10.247 2.1208,-3.966 24.771,-25.838 40.793,-53.755 50.809,-88.527 5.8106,-20.173 8.9448,-62.796 5.9203,-80.51 -8.3806,-49.086 -37.263,-87.96 -81.773,-110.06 -46.478,-23.079 -95.18,-21.975 -139.18,3.1554 -18.375,10.495 -46.814,38.1 -54.893,53.283 -3.9563,7.4347 -7.3783,10.365 -13.558,11.611 -6.9928,1.4098 -9.1564,0.59491 -14.042,-5.2876 -6.9842,-8.4094 -7.1389,-12.011 -0.8387,-19.522 z m 2.0673,478.74 c 6.7367,-19.668 14.062,-32.466 26.184,-45.746 11.072,-12.128 30.818,-26.62 33.08,-24.278 0.73902,0.76502 -2.5998,3.7347 -7.4196,6.5998 -12.102,7.1933 -34.018,30.056 -40.318,42.058 -7.0499,13.432 -11.604,27.193 -14.172,42.822 -2.0355,12.387 -2.1379,12.52 -2.1425,2.7726 -0.0025,-5.6303 2.152,-16.533 4.7878,-24.229 z m -4.0189,50.425 c 0.67087,1.7441 0.6538,5.1986 -0.03788,7.6768 -0.69168,2.4778 -1.2406,1.051 -1.2198,-3.1713 0.02081,-4.2223 0.58678,-6.2499 1.2576,-4.5055 z m 10.711,-470.65 c 0.6793,1.7712 0.62955,4.6493 -0.11056,6.3959 -0.7401,1.7466 -1.2959,0.29752 -1.2351,-3.2202 0.0608,-3.5178 0.6664,-4.9468 1.3457,-3.1757 z m 2.6078,-11.418 c 0.83539,0.86478 0.88812,3.0731 0.11714,4.9072 -0.85194,2.0268 -1.4476,1.4101 -1.5189,-1.5726 -0.06456,-2.6986 0.56633,-4.1994 1.4017,-3.3346 z m 0.9944,71.62 c 4.3382,7.8248 11.597,9.3461 16.634,3.4864 2.5812,-3.0031 2.6136,-4.5786 0.1573,-7.6446 -2.5202,-3.1453 -2.2493,-4.1691 1.4602,-5.5195 5.2297,-1.9039 13.838,7.3312 13.71,14.709 -0.11124,6.435 -8.0567,14.725 -15.706,16.388 -8.3253,1.8091 -17.06,-7.286 -18.888,-19.668 l -1.3078,-8.8565 3.9395,7.1057 z m 5.4566,-90.115 c 1.4006,-2.0872 2.5264,-2.6435 2.5021,-1.2363 -0.02432,1.4069 -1.1899,4.2658 -2.5905,6.353 -1.4005,2.087 -2.5264,2.6432 -2.5021,1.2363 0.02432,-1.4072 1.1901,-4.2661 2.5905,-6.3531 z m -8.0045,463.06 c 1.4071,0.0244 2.5385,1.1954 2.5141,2.6026 -0.02432,1.4069 -1.1955,2.5384 -2.6026,2.5142 -1.4071,-0.0244 -2.5385,-1.1957 -2.5141,-2.6026 0.02433,-1.4072 1.1955,-2.5384 2.6026,-2.5142 z m 1.8231,-16.016 c 1.0438,-1.0082 3.6629,-1.8026 5.8206,-1.7653 2.8796,0.0497 3.1529,0.8114 1.0275,2.8646 -1.5925,1.5385 -4.2117,2.333 -5.8206,1.7656 -1.6089,-0.56763 -2.0712,-1.8568 -1.0274,-2.8649 z m 11.695,-17.019 c 2.8972,0.0501 4.5362,1.2299 3.6423,2.6221 -0.89391,1.3919 -3.2843,2.5024 -5.3119,2.4673 -2.0276,-0.035 -3.6666,-1.2152 -3.6423,-2.6221 0.02433,-1.4072 2.4147,-2.5174 5.312,-2.4673 z m 12.738,-116.46 5.8406,-4.7742 -4.9731,5.6721 c -4.6736,5.3302 -6.7587,6.8061 -6.7233,4.759 0.0084,-0.4856 2.6436,-3.0314 5.8558,-5.6568 z m -2.3906,101.29 c 2.8143,0.0486 5.0968,1.2396 5.0725,2.6468 -0.0243,1.4069 -2.3467,2.5186 -5.161,2.4699 -2.8141,-0.0487 -5.0968,-1.2399 -5.0725,-2.6468 0.02433,-1.4072 2.3468,-2.5186 5.161,-2.4699 z m 14.93,-12.456 c 6.6649,0.19238 6.7759,0.39172 2.1166,3.7935 -4.9526,3.6156 -9.2694,2.8696 -9.1924,-1.589 0.0229,-1.3242 3.2069,-2.316 7.0757,-2.2044 z m 3.0316,-101.36 5.8406,-4.7742 -4.9731,5.6721 c -4.6736,5.3302 -6.7587,6.8062 -6.7233,4.759 0.008,-0.4856 2.6436,-3.0314 5.8558,-5.6568 z m 36.618,-26.872 c 16.219,-11.868 35.768,-26.898 43.443,-33.401 8.0346,-6.8069 10.656,-8.352 6.1785,-3.6425 -9.677,10.18 -79.182,62.736 -79.131,59.835 0.0115,-0.66705 13.291,-10.924 29.51,-22.792 z m -26.147,115.59 c 2.7312,0.0472 5.585,1.1274 6.3416,2.4004 1.6555,2.7855 -3.763,5.0126 -8.2098,3.375 -4.9611,-1.8277 -3.653,-5.8708 1.8681,-5.7754 z m 25.489,84.058 c 9.4862,-9.1638 25.475,-2.3565 23.796,10.132 -1.0325,7.6817 -7.4699,12.304 -7.3484,5.2755 0.046,-2.6605 -2.2212,-4.0902 -6.6057,-4.166 -6.1286,-0.1059 -6.6026,0.62347 -5.7814,8.8961 0.74576,7.5135 0.33668,8.4342 -2.4607,5.5381 -5.645,-5.8434 -6.5809,-20.863 -1.5999,-25.675 z m 26.761,-172.73 c 13.812,-5.8923 35.564,-15.701 48.336,-21.797 13.71,-6.5428 26.201,-10.832 30.492,-10.47 10.753,0.90845 22.122,7.7386 20.319,12.206 -2.5029,6.1996 -17.822,13.799 -27.481,13.632 -12.432,-0.2149 -44.657,5.5768 -72.076,12.955 -12.549,3.3762 -23.241,5.6996 -23.76,5.1627 -0.51866,-0.53686 10.358,-5.7967 24.17,-11.689 z m 67.375,-16.573 c 11.682,-2.5777 21.978,-5.4446 22.878,-6.371 0.90057,-0.92658 -0.67578,-1.1116 -3.5029,-0.41138 -2.8271,0.70026 -13.575,3.0983 -23.885,5.3286 -10.31,2.2306 -18.292,4.5244 -17.738,5.0978 0.55388,0.57373 10.566,-1.0663 22.248,-3.6441 z m -79.352,226.92 c 49.53,33.575 119.37,-7.3746 114.26,-66.993 -1.3314,-15.523 -10.593,-38.536 -20.389,-50.664 -3.6464,-4.5143 -11.798,-12.04 -18.114,-16.723 -6.3164,-4.6836 -10.419,-8.4685 -9.1164,-8.4113 4.9932,0.21997 26.707,18.841 33.779,28.968 16.826,24.093 21.686,57.086 12.264,83.249 -6.098,16.932 -26.477,36.498 -44.337,42.567 -13.569,4.6107 -19.075,10.438 -13.341,14.121 1.7208,1.105 4.0569,1.4572 5.1914,0.78296 1.1345,-0.6745 2.033,0.49121 1.9967,2.5899 -0.0363,2.0989 -2.4641,4.53214 -5.3951,5.40674 -7.5253,2.246 -15.815,-5.96364 -13.752,-13.61904 1.4596,-5.4173 0.76883,-5.8569 -9.4848,-6.0342 -11.588,-0.20032 -34.296,-10.272 -40.338,-17.891 -1.8351,-2.3144 1.2165,-1.1211 6.7814,2.6514 z m 30.086,-421.15 c 1.9491,-4.1889 6.8348,-10.438 10.857,-13.888 l 7.3132,-6.2714 -5.7249,7.2838 c -7.9789,10.151 -7.8615,21.338 0.24684,23.523 7.2354,1.9494 11.662,-0.0312 11.752,-5.2585 0.10849,-6.2762 7.5555,-3.9243 9.1404,2.8871 1.7907,7.6952 -4.3836,17.942 -12.22,20.281 -7.5817,2.2628 -19.091,-3.3684 -22.39,-10.955 -3.3975,-7.812 -3.3786,-8.1375 1.0258,-17.603 z m 1.8082,130.55 c 1.4222,-0.84546 2.5447,0.83337 2.4946,3.7306 -0.0501,2.8972 -1.2423,5.248 -2.6494,5.2237 -1.4071,-0.0243 -2.5297,-1.7032 -2.4946,-3.731 0.0351,-2.0275 1.2273,-4.3782 2.6494,-5.2233 z m 12.166,-13.241 c 1.6948,-4.0028 6.0027,-1.4779 5.9172,3.468 -0.035,2.0278 -1.7906,3.6569 -3.9013,3.6204 -3.9449,-0.0682 -4.3642,-1.5424 -2.016,-7.0884 z m -0.7214,153.11 c 2.6989,-0.0646 4.1994,0.56616 3.3346,1.4016 -0.86487,0.83569 -3.073,0.88812 -4.9071,0.11731 -2.0268,-0.85199 -1.41,-1.448 1.5724,-1.5189 z m 8.1523,-15.139 c 24.936,0.0609 66.327,18.656 88.491,39.754 12.316,11.723 12.962,13.001 12.751,25.206 -0.12222,7.0708 -0.9917,13.6 -1.9322,14.508 -3.9419,3.808 -17.138,-7.0936 -22.434,-18.533 -11.529,-24.903 -44.47,-50.883 -73.094,-57.648 -13.66,-3.2282 -13.756,-3.3121 -3.7819,-3.2877 z m 92.072,62.734 c 2.8573,4.9755 5.2213,7.7805 5.2533,6.2328 0.0885,-4.2786 -13.119,-21.91 -24.069,-32.131 -8.1975,-7.652 -7.8887,-7.0331 1.9316,3.8721 6.4288,7.1387 14.026,17.05 16.884,22.026 z m -86.395,-218.38 c 2.3301,-5.5454 6.0291,-3.3459 5.9105,3.5141 -0.0685,3.9647 -1.3228,6.1832 -3.1348,5.544 -3.5784,-1.2618 -4.6214,-4.6655 -2.7757,-9.058 z m -3.4239,173.4 c 1.4072,0.0244 4.266,1.1902 6.353,2.5909 2.0871,1.4006 2.6435,2.5264 1.2363,2.5021 -1.4071,-0.0243 -4.2659,-1.1899 -6.353,-2.5906 -2.087,-1.4006 -2.6434,-2.5267 -1.2363,-2.5024 z m 44.12,-24.666 c 10.725,-0.30164 54.022,9.0842 75.608,16.39 12.215,4.1338 37.17,16.146 55.456,26.693 35.806,20.653 52.001,25.368 62.087,18.075 4.3098,-3.116 4.5789,-4.3087 1.7646,-7.8218 -1.8264,-2.2795 -4.3524,-3.5316 -5.6133,-2.782 -1.261,0.74951 -2.2717,0.1438 -2.246,-1.3465 0.076,-4.3931 12.15,-2.8842 13.83,1.7283 6.1328,16.847 -19.907,22.412 -44.633,9.5384 -4.6686,-2.4308 -9.0267,-4.4286 -9.6844,-4.44 -0.65787,-0.0114 6.5331,8.4619 15.98,18.83 11.301,12.403 19.169,18.926 23.003,19.07 3.2052,0.12073 7.1892,1.6291 8.8536,3.352 2.3586,2.4415 1.4663,3.1055 -4.0453,3.0102 l -7.0713,-0.1223 5.518,10.228 c 3.0349,5.6256 6.3888,9.7103 7.4532,9.0776 2.6978,-1.6034 10.027,1.6263 9.9787,4.3973 -0.0217,1.2564 -1.7664,2.2549 -3.877,2.2184 -4.574,-0.0791 -4.5423,-0.3172 -1.2771,9.5975 1.649,5.0068 4.8844,8.4866 8.8962,9.5674 3.4677,0.93433 5.6635,2.6973 4.8797,3.918 -2.1432,3.3374 -11.041,0.0541 -12.777,-4.7147 -1.2964,-3.5612 -1.8696,-3.6392 -3.8674,-0.52856 -3.5389,5.511 -5.971,1.1173 -2.6642,-4.8129 2.2113,-3.9651 1.9134,-7.2701 -1.2883,-14.294 -3.9261,-8.6131 -4.4352,-8.8996 -8.891,-5.0052 -4.4251,3.8675 -4.7206,3.793 -4.6349,-1.1691 0.0504,-2.915 1.4986,-5.7421 3.2181,-6.2822 4.7409,-1.49 -17.801,-32.691 -35.803,-49.558 -27.692,-25.944 -72.828,-46.205 -128.04,-57.476 -13.981,-2.8542 -23.03,-5.2561 -20.11,-5.3381 z m 24.302,-437.37 c 10.573,0.0275 42.067,20.119 58.384,37.247 24.258,25.464 45.049,72.535 43.597,98.708 -0.26318,4.7444 -0.78922,5.7719 -1.3503,2.6379 -0.50552,-2.8237 -2.0707,-11.488 -3.4782,-19.254 -8.9024,-49.12 -43.911,-94.575 -87.255,-113.29 -7.7178,-3.3323 -12.172,-6.0544 -9.8978,-6.0485 z m 15.856,-19.681 c 4.1362,1.4585 8.5377,9.1823 6.4062,11.241 -0.96118,0.92838 -3.5124,0.9758 -5.6693,0.10504 -4.537,-1.8316 -5.2584,-12.941 -0.73682,-11.346 z m 28.422,17.622 c 4.7585,4.09 5.2925,11.421 0.71573,9.8259 -1.7489,-0.60974 -3.5308,-3.8485 -3.9601,-7.197 -0.68121,-5.3156 -0.26947,-5.6493 3.2444,-2.6289 z m 22.093,19.068 c 3.9417,1.3902 4.4697,9.4412 0.67673,10.32 -1.4132,0.3273 -2.9071,-2.1299 -3.3198,-5.4609 -0.51446,-4.1519 0.31653,-5.6795 2.6431,-4.8592 z m 0.2612,404.48 c 6.332,0.10944 8.9137,0.65326 5.7372,1.2081 -3.1765,0.55524 -8.3572,0.46564 -11.513,-0.19898 -3.1554,-0.66437 -0.5564,-1.1186 5.7755,-1.0092 z m 16.835,-381.72 c 1.4071,0.0243 2.5186,2.3468 2.4699,5.161 -0.0486,2.8142 -1.2397,5.0968 -2.6468,5.0725 -1.4071,-0.0243 -2.5186,-2.3468 -2.4699,-5.161 0.0487,-2.8142 1.2398,-5.0968 2.6468,-5.0725 z m 12.193,24.632 c 3.094,-1.839 6.0441,3.026 3.8792,6.3971 -1.8177,2.8307 -6.3872,0.87302 -6.3252,-2.71 0.0215,-1.2411 1.1222,-2.9002 2.4461,-3.6871 z m 17.902,352.62 c 15.147,-1.5341 40.519,-5.842 56.383,-9.5734 57.916,-13.623 95.174,-31.533 129.73,-62.36 11.617,-10.362 16.778,-14.02 11.787,-8.3524 -30.755,34.919 -82.335,62.083 -141.07,74.291 -29.634,6.1596 -72.057,11.378 -79.595,9.7913 -2.6292,-0.55371 7.6126,-2.262 22.76,-3.7961 z m -7.9542,-325.68 c 2.0486,-3.0529 2.5341,-2.6396 2.4835,2.1132 -0.0351,3.2945 -1.1826,5.1891 -2.594,4.2828 -3.0435,-1.9545 -3.0481,-1.6887 0.11056,-6.3959 z m -1.8031,60.748 c 0.55505,3.1763 0.46552,8.3571 -0.199,11.513 -0.66449,3.1553 -1.1187,0.5564 -1.0092,-5.7755 0.10944,-6.3319 0.6532,-8.9138 1.2082,-5.7371 z m 21.366,288.01 c 71.566,0.0381 152.08,17.891 190.72,42.29 17.158,10.833 40.542,35.304 47.638,49.852 22.626,46.384 13.434,95.142 -20.937,111.05 -11.622,5.38 -11.625,5.3803 -18.352,0.19733 -7.6658,-5.9075 -10.27,-21.616 -4.6653,-28.137 4.8483,-5.6408 13.149,-8.0158 18.258,-5.225 5.3058,2.8982 5.79,7.3851 0.78748,7.2986 -5.6274,-0.0973 -7.2971,7.6981 -3.0806,14.382 4.8698,7.7203 6.616,7.6784 16.556,-0.39642 16.254,-13.204 23.412,-35.937 19.219,-61.041 -12.656,-75.768 -86.652,-116.43 -232.12,-127.55 -30.609,-2.3404 -32.636,-2.7338 -14.028,-2.7242 z m 4.4537,-70.016 c 36.489,-8.1882 55.146,-21.664 45.926,-33.173 -4.3074,-5.3764 -9.1744,-4.9054 -13.702,1.326 l -3.8516,5.3016 -2.9449,-5.7386 c -2.45,-4.7745 -2.0867,-6.8528 2.1624,-12.368 6.8519,-8.8944 16.32,-9.5395 25.11,-1.7111 8.4489,7.5254 9.2119,19.669 1.7452,27.776 -7.055,7.6601 -27.616,16.316 -49.33,20.767 -24.438,5.0092 -28.823,3.1411 -5.1146,-2.1793 z m 51.764,222.87 c 1.258,-2.7933 2.3449,-3.7326 2.4153,-2.0869 0.0705,1.6453 0.74109,4.6756 1.4902,6.7332 0.74908,2.0576 -0.44299,4.3983 -2.649,5.2015 -4.4084,1.6045 -4.8512,-1.8654 -1.2565,-9.8477 z m 8.6043,11.665 c 2.0276,0.035 4.3782,1.2272 5.2235,2.6494 0.84537,1.4219 -0.8335,2.5447 -3.7308,2.4946 -2.8972,-0.0501 -5.2478,-1.2425 -5.2235,-2.6494 0.0243,-1.4072 1.7032,-2.5297 3.7308,-2.4946 z m 1.5092,21.073 c 3.9169,1.381 4.423,11.989 0.61417,12.872 -1.4132,0.32733 -2.8888,-2.7024 -3.2794,-6.7335 -0.50348,-5.1973 0.27182,-6.9826 2.6652,-6.1384 z m 39.276,-225.1 c 1.4072,0.0243 2.5384,1.1954 2.5142,2.6026 -0.0243,1.4069 -1.1954,2.5384 -2.6026,2.5141 -1.4071,-0.0243 -2.5384,-1.1957 -2.5142,-2.6026 0.0244,-1.4072 1.1955,-2.5384 2.6026,-2.5141 z m 23.221,-313.56 c 5.0092,-11.209 22.027,-14.092 36.816,-6.2375 26.352,13.995 45.032,36.06 54.684,64.592 6.7218,19.87 6.8605,61.506 0.25384,76.138 -6.0768,13.459 -7.3093,11.776 -2.848,-3.8879 8.739,-30.683 3.9768,-71.85 -11.147,-96.362 -18.003,-29.177 -51.313,-44.117 -56.386,-25.29 -2.1816,8.097 1.1449,14.346 8.6724,16.291 5.2189,1.3485 5.3024,1.7708 1.4089,7.1201 -5.41,7.433 -16.891,7.233 -25.511,-0.44504 -7.2865,-6.49 -10.234,-22.32 -5.9437,-31.92 z m -1.3423,306.27 c 2.1107,0.0365 3.8176,1.2175 3.7933,2.6247 -0.0244,1.4069 -1.7711,2.5285 -3.8818,2.492 -2.1107,-0.0365 -3.8177,-1.2178 -3.7933,-2.6247 0.0243,-1.4072 1.7712,-2.5285 3.8818,-2.492 z m 18.085,-9.9239 c 2.1107,0.0364 3.8176,1.2175 3.7933,2.6247 -0.0243,1.4069 -1.7711,2.5285 -3.8818,2.492 -2.1107,-0.0365 -3.8177,-1.2178 -3.7933,-2.6247 0.0243,-1.4072 1.7712,-2.5285 3.8818,-2.492 z m 9.9361,-118.55 c 2.2404,-0.81567 8.0458,-1.4141 12.901,-1.3302 29.149,0.50384 57.493,-29.207 62.056,-65.049 2.1638,-16.996 11.391,-48.407 15.418,-52.484 1.2986,-1.3146 2.3947,-4.3393 2.4359,-6.7215 0.0861,-4.9822 6.0389,-7.8554 11.613,-5.6048 5.8539,2.3632 4.3856,10.175 -2.7596,14.683 -6.1595,3.8853 -15.938,18.552 -13.826,20.738 0.56079,0.58044 2.6664,-1.8976 4.6791,-5.5072 6.0077,-10.774 21.392,-16.287 57.735,-20.69 18.401,-2.2295 35.475,-4.7887 37.942,-5.687 7.0469,-2.5654 5.5486,10.686 -2.0368,18.014 -3.7286,3.6015 -5.8245,7.985 -5.1481,10.767 1.3504,5.5549 -8.3644,18.411 -13.841,18.316 -2.5646,-0.0444 -3.3538,1.5106 -2.3958,4.7201 1.9916,6.6728 -6.5458,15.986 -14.969,16.329 -3.8245,0.15601 -6.9787,1.6819 -7.0093,3.3911 -0.10339,5.7831 -10.066,8.8473 -18.578,5.7143 -4.3054,-1.5848 -10.247,-2.9065 -13.203,-2.937 -4.932,-0.0502 -4.8524,0.22009 0.9649,3.28 9.2484,4.8645 9.2452,13.368 -0.009,22.307 -6.895,6.6607 -9.52919,7.4961 -22.911,7.2648 -12.656,-0.21881 -18.263,1.3256 -34.409,9.4789 -10.609,5.3572 -25.006,11.033 -31.994,12.612 -6.9879,1.5792 -14.149,3.9608 -15.914,5.292 -3.5709,2.6942 -10.92,0.63068 -10.856,-3.0482 0.0225,-1.3008 1.8741,-3.0325 4.1146,-3.8482 z m 83.986,-33.832 c 8.2114,-1.0635 9.1924,-7.0568 1.1778,-7.1953 -4.2993,-0.0743 -6.6334,1.2889 -6.6785,3.9014 -0.0461,2.6667 1.8016,3.773 5.5007,3.294 z m 16.295,4.6986 c 6.2366,-3.9339 9.2304,-16.591 3.946,-16.683 -1.407,-0.0244 -2.5967,2.1762 -2.6437,4.8898 -0.12476,7.2179 -7.1088,12.797 -16.404,13.104 l -8.139,0.2689 8.4777,1.1921 c 5.0623,0.71198 11.01,-0.40515 14.763,-2.7726 z m -10.645,-36.128 c 1.6052,-2.7872 5.193,-7.498 7.973,-10.469 3.0333,-3.2408 4.0362,-6.0547 2.5081,-7.0358 -2.6714,-1.7156 -3.5002,-0.81464 -9.6473,10.489 -4.4059,8.1011 -5.1721,14.549 -0.83374,7.0158 z m 20.532,-19.354 c 10.139,1.0312 19.614,-6.2653 17.1,-13.169 -1.9559,-5.3729 -16.531,-5.3759 -22.676,-0.005 -7.3396,6.415 -4.9313,12.105 5.5756,13.174 z m -1.0501,-9.739 c 8.0146,0.13855 7.0336,6.1317 -1.1778,7.1953 -3.6992,0.479 -5.5468,-0.62726 -5.5007,-3.294 0.0452,-2.6124 2.3792,-3.9756 6.6785,-3.9013 z m 17.373,29.904 c 1.6513,-2.1782 5.325,-3.9204 8.1636,-3.8713 5.778,0.0999 12.215,-6.007 10.094,-9.5759 -0.75879,-1.2761 1.6138,-3.6227 5.2721,-5.2136 5.1002,-2.2183 6.4043,-4.3209 5.5908,-9.0146 -0.78723,-4.5424 0.55231,-6.9493 5.1936,-9.3308 3.44,-1.7656 7.4868,-5.4196 8.993,-8.1205 2.5137,-4.5078 2.0559,-4.7869 -5.5776,-3.3968 -4.5738,0.83313 -10.695,1.4733 -13.602,1.4231 -5.1103,-0.0883 -5.1282,0.0282 -0.53906,3.507 4.6048,3.4909 4.5815,3.6979 -0.77997,6.9188 -4.1227,2.4766 -4.8448,4.1714 -2.8423,6.6708 3.2201,4.0196 -1.6722,10.953 -7.6555,10.85 -3.0698,-0.053 -3.2319,0.68951 -0.81012,3.7125 4.2199,5.2672 0.966,9.0858 -7.6161,8.9375 -4.0847,-0.0706 -7.9223,1.539 -8.7892,3.6868 -0.94128,2.3314 -5.2994,3.9208 -11.221,4.0917 -9.3491,0.27014 -9.29,0.32111 1.7206,1.4833 8.28,0.87378 12.225,0.11853 14.405,-2.7575 z m -118.45,170.52 c 2.0276,0.035 4.3782,1.2271 5.2235,2.6494 0.8454,1.4219 -0.8335,2.5447 -3.7308,2.4946 -2.8972,-0.0501 -5.2478,-1.2425 -5.2235,-2.6494 0.0244,-1.4072 1.7032,-2.5297 3.7308,-2.4946 z m 17.024,-13.781 c 3.0508,-1.8135 7.6655,0.68695 7.6061,4.121 -0.0229,1.3242 -2.3441,2.3677 -5.1583,2.3191 -5.3958,-0.0933 -6.8203,-3.8413 -2.4478,-6.4401 z m 8.5751,96.116 c 1.4072,0.0244 2.5384,1.1954 2.5142,2.6026 -0.0243,1.4069 -1.1954,2.5384 -2.6026,2.5142 -1.4071,-0.0244 -2.5384,-1.1957 -2.5142,-2.6026 0.0244,-1.4072 1.1956,-2.5384 2.6026,-2.5142 z m 10.9,-112.41 c 3.5178,0.0608 6.3782,1.1387 6.3564,2.395 -0.0516,2.9841 -7.573,5.6887 -10.533,3.7878 -4.4609,-2.8646 -2.1456,-6.2921 4.1764,-6.1829 z m 8.155,120.42 c 2.1107,0.0365 3.8177,1.2175 3.7933,2.6247 -0.0243,1.4069 -1.7711,2.5285 -3.8818,2.4921 -2.1106,-0.0365 -3.8176,-1.2178 -3.7933,-2.6247 0.0244,-1.4072 1.7712,-2.5286 3.8818,-2.4921 z m 4.8514,-139.7 c 4.6266,-1.6844 9.6634,1.2626 7.6136,4.4542 -2.0596,3.2074 -11.456,2.8328 -11.399,-0.4541 0.0251,-1.4513 1.7286,-3.2512 3.7853,-4.0001 z m 6.8718,165.49 c 0.70349,0.0122 2.6826,1.7736 4.3976,3.9147 1.7152,2.1408 2.543,3.8826 1.8394,3.8705 -0.70355,-0.0122 -2.6826,-1.7739 -4.3978,-3.9147 -1.7152,-2.1411 -2.5428,-3.8826 -1.8393,-3.8705 z m 5.8575,-15.254 c 2.0276,0.0351 4.3782,1.2272 5.2235,2.6494 0.84534,1.422 -0.8335,2.5447 -3.7308,2.4947 -2.8972,-0.0501 -5.2479,-1.2426 -5.2235,-2.6494 0.0243,-1.4072 1.7032,-2.5297 3.7308,-2.4947 z m 13.361,13.066 c 1.055,0.0398 3.5932,1.1727 5.6404,2.5176 4.6099,3.0281 1.6351,6.4358 -3.728,4.2707 -3.9609,-1.5992 -5.4605,-6.9221 -1.9124,-6.7883 z m 2.7785,24.321 c 2.7702,2.5955 5.0267,5.2948 5.0146,5.9981 -0.0122,0.70361 -2.2886,-0.84424 -5.0588,-3.4397 -2.7701,-2.5955 -5.0267,-5.2948 -5.0146,-5.9984 0.0122,-0.70331 2.2887,0.84454 5.0588,3.44 z m 12.633,-8.7385 c 1.2349,0.0213 3.6485,1.7903 5.3636,3.9314 2.6055,3.2521 2.2252,3.8771 -2.3114,3.7987 -3.1211,-0.054 -5.4018,-1.7256 -5.3637,-3.9314 0.0365,-2.1108 1.0767,-3.8201 2.3115,-3.7987 z m 22.896,-423.76 c 12.084,-24.39 31.52,-45.714 51.618,-56.634 7.4595,-4.0531 14.224,-8.3993 15.033,-9.6586 0.80866,-1.259 3.2136,-2.2593 5.3444,-2.2225 6.0018,0.10376 2.8399,8.5275 -3.3309,8.8738 -18.577,1.0425 -52.518,33.162 -68.541,64.864 -5.7837,11.443 -10.509,19.654 -10.5,18.246 0.009,-1.4075 4.6777,-11.968 10.376,-23.469 z m 0.6315,33.567 c 15.4,-22.035 36.948,-35.415 67.758,-42.072 9.7082,-2.0974 19.822,-4.9443 22.475,-6.3261 3.1994,-1.6663 5.6658,-1.6402 7.3251,0.0776 3.9392,4.0777 -0.45007,8.2713 -6.8519,6.5462 -8.2524,-2.2235 -36.143,4.9992 -53.558,13.87 -13.894,7.077 -31.346,22.688 -41.494,37.116 -2.4452,3.4765 -4.4962,5.7288 -4.5574,5.0054 -0.0613,-0.72394 3.9454,-7.1206 8.9038,-14.216 z m -9.2612,409.36 c 2.2109,0.89294 4.5013,1.6314 5.0898,1.6415 0.58844,0.0101 1.05,1.1696 1.0256,2.5768 -0.0243,1.4069 -2.3467,2.5186 -5.161,2.4699 -2.994,-0.0518 -5.0872,-1.7942 -5.0456,-4.1999 0.0466,-2.6976 1.4531,-3.5534 4.0911,-2.4884 z"
       inkscape:connector-curvature="0" />
  </g>
</svg>
