<?xml version="1.0" encoding="UTF-8" standalone="no"?>
<svg
   xmlns:dc="http://purl.org/dc/elements/1.1/"
   xmlns:cc="http://creativecommons.org/ns#"
   xmlns:rdf="http://www.w3.org/1999/02/22-rdf-syntax-ns#"
   xmlns:svg="http://www.w3.org/2000/svg"
   xmlns="http://www.w3.org/2000/svg"
   xmlns:sodipodi="http://sodipodi.sourceforge.net/DTD/sodipodi-0.dtd"
   xmlns:inkscape="http://www.inkscape.org/namespaces/inkscape"
   width="121"
   height="121"
   id="svg2"
   version="1.1"
   inkscape:version="0.48.4 r9939"
   sodipodi:docname="tendril-favicon.svg">
  <metadata
     id="metadata18">
    <rdf:RDF>
      <cc:Work
         rdf:about="">
        <dc:format>image/svg+xml</dc:format>
        <dc:type
           rdf:resource="http://purl.org/dc/dcmitype/StillImage" />
        <dc:title />
      </cc:Work>
    </rdf:RDF>
  </metadata>
  <defs
     id="defs16" />
  <sodipodi:namedview
     pagecolor="#ffffff"
     bordercolor="#666666"
     borderopacity="1"
     objecttolerance="10"
     gridtolerance="10"
     guidetolerance="10"
     inkscape:pageopacity="0"
     inkscape:pageshadow="2"
     inkscape:window-width="1366"
     inkscape:window-height="704"
     id="namedview14"
     showgrid="false"
     fit-margin-top="0"
     fit-margin-left="0"
     fit-margin-right="0"
     fit-margin-bottom="0"
     inkscape:zoom="1.7939946"
     inkscape:cx="134.07854"
     inkscape:cy="32.789457"
     inkscape:window-x="0"
     inkscape:window-y="-4"
     inkscape:window-maximized="1"
     inkscape:current-layer="svg2" />
  <path
     style="fill:#84b33f"
     inkscape:connector-curvature="0"
     d="m 2.6937811,70.907746 c 3.836076,-33.71846 11.3910299,-48.407 15.4180299,-52.484 1.2986,-1.3146 2.3947,-4.3393 2.4359,-6.721499 0.086,-4.9821999 6.0389,-7.8553999 11.613002,-5.6047999 5.8539,2.3632 4.3856,10.1749989 -2.7596,14.6829989 -6.159502,3.8853 -15.938002,18.552 -13.826002,20.738 0.5608,0.58044 2.6664,-1.8976 4.6791,-5.5072 6.0077,-10.774 21.392002,-16.287 57.735002,-20.69 18.401,-2.2295 35.474997,-4.788699 37.941997,-5.6869989 7.0469,-2.5654 5.5486,10.6859989 -2.0368,18.0139989 -3.7286,3.6015 -5.8245,7.985 -5.1481,10.767 1.3504,5.5549 -8.3644,18.411 -13.840997,18.316 -2.5646,-0.0444 -3.3538,1.5106 -2.3958,4.7201 1.9916,6.6728 -6.5458,15.986 -14.969,16.329 -3.8245,0.15601 -6.9787,1.6819 -7.0093,3.3911 -0.1034,5.7831 -10.066,8.8473 -18.578,5.7143 -4.3054,-1.5848 -10.247,-2.9065 -13.203,-2.937 -4.932,-0.0502 -4.8524,0.22009 0.9649,3.28 9.2484,4.8645 9.2452,13.367994 -0.01,22.307004 -6.895,6.6607 -9.5292,7.4961 -22.911002,7.2648 C -8.8668719,121.43314 2.4484511,70.429606 2.6937811,70.907746 z m 9.0290299,32.547194 c 8.2114,-1.0635 9.1924,-7.056797 1.1778,-7.195297 -4.2992999,-0.0743 -6.6333999,1.2889 -6.6784999,3.901397 -0.046,2.6667 1.8016,3.773 5.5006999,3.294 z m 16.295002,4.69861 c 6.2366,-3.93391 9.2304,-16.591004 3.946,-16.683004 -1.407,-0.0244 -2.5967,2.1762 -2.6437,4.889797 -0.1248,7.217897 -7.108802,12.797007 -16.404002,13.104007 l -8.1389999,0.2689 8.4776999,1.1921 c 5.0623,0.71198 11.01,-0.40515 14.763002,-2.7726 z M 17.372811,72.025546 c 1.6052,-2.7872 5.193,-7.498 7.973,-10.469 3.033302,-3.2408 4.036202,-6.0547 2.508102,-7.0358 -2.671402,-1.7156 -3.500202,-0.81464 -9.647302,10.489 -4.4059,8.1011 -5.1721,14.549 -0.8338,7.0158 z m 20.532002,-19.354 c 10.139,1.0312 19.614,-6.2653 17.1,-13.169 -1.9559,-5.3729 -16.531,-5.3759 -22.676,-0.005 -7.339602,6.415 -4.931302,12.105 5.5756,13.174 z m -1.0501,-9.739 c 8.0146,0.13855 7.0336,6.1317 -1.1778,7.1953 -3.6992,0.479 -5.5468,-0.62726 -5.5007,-3.294 0.045,-2.6124 2.3792,-3.9756 6.6785,-3.9013 z m 17.373,29.904 c 1.6513,-2.1782 5.325,-3.9204 8.1636,-3.8713 5.778,0.0999 12.215,-6.007 10.094,-9.5759 -0.7588,-1.2761 1.6138,-3.6227 5.2721,-5.2136 5.1002,-2.2183 6.4043,-4.3209 5.5908,-9.0146 -0.7873,-4.5424 0.5523,-6.9493 5.1936,-9.3308 3.44,-1.7656 7.4868,-5.4196 8.993,-8.1205 2.513697,-4.5078 2.0559,-4.7869 -5.5776,-3.3968 -4.5738,0.83313 -10.695,1.4733 -13.602,1.4231 -5.1103,-0.0883 -5.1282,0.0282 -0.5391,3.507 4.6048,3.4909 4.5815,3.6979 -0.78,6.9188 -4.1227,2.4766 -4.8448,4.1714 -2.8423,6.6708 3.2201,4.0196 -1.6722,10.953 -7.6555,10.85 -3.0698,-0.053 -3.2319,0.68951 -0.8101,3.7125 4.2199,5.2672 0.966,9.0858 -7.6161,8.9375 -4.0847,-0.0706 -7.9223,1.539 -8.7892,3.6868 -0.9413,2.3314 -5.2994,3.9208 -11.221,4.0917 -9.3491,0.27014 -9.29,0.32111 1.7206,1.4833 8.28,0.87378 12.225,0.11853 14.405,-2.7575 z"
     id="path3472"
     sodipodi:nodetypes="cccccsscccccccccccccccscccccccccccccccccccsccsccccsccscccccccccscccc" />
</svg>
